<?xml version="1.0" standalone="no"?>
 <!DOCTYPE svg PUBLIC "-//W3C//DTD SVG 1.1//EN" 
 "http://www.w3.org/Graphics/SVG/1.1/DTD/svg11.dtd"> 
<svg xmlns="http://www.w3.org/2000/svg" version="1.1" 
    width="29.7002cm" height="21.0007cm" viewBox="0 0 116930 82680 ">
<title>SVG Picture created as final_project_UZEL-F.SilkS.svg date 2017/06/12 23:11:24 </title>
  <desc>Picture generated by PCBNEW </desc>
<g style="fill:#000000; fill-opacity:1;stroke:#000000; stroke-opacity:1;
stroke-linecap:round; stroke-linejoin:round; "
 transform="translate(0 0) scale(1 1)">
</g>
<g style="fill:#000000; fill-opacity:0.0; 
stroke:#000000; stroke-width:-0.000393701; stroke-opacity:1; 
stroke-linecap:round; stroke-linejoin:round;">
</g>
<g style="fill:#000000; fill-opacity:0.0; 
stroke:#000000; stroke-width:39.3701; stroke-opacity:1; 
stroke-linecap:round; stroke-linejoin:round;">
</g>
<g style="fill:#000000; fill-opacity:0.0; 
stroke:#000000; stroke-width:59.0551; stroke-opacity:1; 
stroke-linecap:round; stroke-linejoin:round;">
<rect x="69685.9" y="65357.2" width="42519.7" height="12598.4" rx="0" />
</g>
<g style="fill:#000000; fill-opacity:0.0; 
stroke:#000000; stroke-width:39.3701; stroke-opacity:1; 
stroke-linecap:round; stroke-linejoin:round;">
</g>
<g style="fill:#000000; fill-opacity:0.0; 
stroke:#000000; stroke-width:59.0551; stroke-opacity:1; 
stroke-linecap:round; stroke-linejoin:round;">
<rect x="3937.01" y="3937.01" width="109056" height="74806" rx="0" />
</g>
<g style="fill:#000000; fill-opacity:0.0; 
stroke:#000000; stroke-width:39.3701; stroke-opacity:1; 
stroke-linecap:round; stroke-linejoin:round;">
</g>
<g style="fill:#000000; fill-opacity:0.0; 
stroke:#000000; stroke-width:59.0551; stroke-opacity:1; 
stroke-linecap:round; stroke-linejoin:round;">
<rect x="4724.41" y="4724.41" width="107481" height="73231.2" rx="0" />
</g>
<g style="fill:#000000; fill-opacity:0.0; 
stroke:#000000; stroke-width:39.3701; stroke-opacity:1; 
stroke-linecap:round; stroke-linejoin:round;">
</g>
<g style="fill:#000000; fill-opacity:0.0; 
stroke:#000000; stroke-width:59.0551; stroke-opacity:1; 
stroke-linecap:round; stroke-linejoin:round;">
<path d="M23622 4724
L23622 3937
" />
</g>
<g style="fill:#000000; fill-opacity:0.0; 
stroke:#000000; stroke-width:39.3701; stroke-opacity:1; 
stroke-linecap:round; stroke-linejoin:round;">
</g>
<g style="fill:#000000; fill-opacity:0.0; 
stroke:#000000; stroke-width:59.0551; stroke-opacity:1; 
stroke-linecap:round; stroke-linejoin:round;">
<path d="M43307 4724
L43307 3937
" />
</g>
<g style="fill:#000000; fill-opacity:0.0; 
stroke:#000000; stroke-width:39.3701; stroke-opacity:1; 
stroke-linecap:round; stroke-linejoin:round;">
</g>
<g style="fill:#000000; fill-opacity:0.0; 
stroke:#000000; stroke-width:59.0551; stroke-opacity:1; 
stroke-linecap:round; stroke-linejoin:round;">
<path d="M62992 4724
L62992 3937
" />
</g>
<g style="fill:#000000; fill-opacity:0.0; 
stroke:#000000; stroke-width:39.3701; stroke-opacity:1; 
stroke-linecap:round; stroke-linejoin:round;">
</g>
<g style="fill:#000000; fill-opacity:0.0; 
stroke:#000000; stroke-width:59.0551; stroke-opacity:1; 
stroke-linecap:round; stroke-linejoin:round;">
<path d="M82677 4724
L82677 3937
" />
</g>
<g style="fill:#000000; fill-opacity:0.0; 
stroke:#000000; stroke-width:39.3701; stroke-opacity:1; 
stroke-linecap:round; stroke-linejoin:round;">
</g>
<g style="fill:#000000; fill-opacity:0.0; 
stroke:#000000; stroke-width:59.0551; stroke-opacity:1; 
stroke-linecap:round; stroke-linejoin:round;">
<path d="M102362 4724
L102362 3937
" />
</g>
<g style="fill:#000000; fill-opacity:0.0; 
stroke:#000000; stroke-width:39.3701; stroke-opacity:1; 
stroke-linecap:round; stroke-linejoin:round;">
</g>
<g style="fill:#000000; fill-opacity:0.0; 
stroke:#000000; stroke-width:59.0551; stroke-opacity:1; 
stroke-linecap:round; stroke-linejoin:round;">
<path d="M14169 4562
L13877 4562
" />
<path d="M14023 4562
L14023 4050
L13974 4123
L13925 4172
L13877 4196
" />
</g>
<g style="fill:#000000; fill-opacity:0.0; 
stroke:#000000; stroke-width:39.3701; stroke-opacity:1; 
stroke-linecap:round; stroke-linejoin:round;">
</g>
<g style="fill:#000000; fill-opacity:0.0; 
stroke:#000000; stroke-width:59.0551; stroke-opacity:1; 
stroke-linecap:round; stroke-linejoin:round;">
<path d="M33562 4099
L33586 4074
L33635 4050
L33757 4050
L33805 4074
L33830 4099
L33854 4147
L33854 4196
L33830 4269
L33537 4562
L33854 4562
" />
</g>
<g style="fill:#000000; fill-opacity:0.0; 
stroke:#000000; stroke-width:39.3701; stroke-opacity:1; 
stroke-linecap:round; stroke-linejoin:round;">
</g>
<g style="fill:#000000; fill-opacity:0.0; 
stroke:#000000; stroke-width:59.0551; stroke-opacity:1; 
stroke-linecap:round; stroke-linejoin:round;">
<path d="M53222 4050
L53539 4050
L53368 4245
L53442 4245
L53490 4269
L53515 4294
L53539 4342
L53539 4464
L53515 4513
L53490 4537
L53442 4562
L53295 4562
L53247 4537
L53222 4513
" />
</g>
<g style="fill:#000000; fill-opacity:0.0; 
stroke:#000000; stroke-width:39.3701; stroke-opacity:1; 
stroke-linecap:round; stroke-linejoin:round;">
</g>
<g style="fill:#000000; fill-opacity:0.0; 
stroke:#000000; stroke-width:59.0551; stroke-opacity:1; 
stroke-linecap:round; stroke-linejoin:round;">
<path d="M73175 4221
L73175 4562
" />
<path d="M73053 4026
L72932 4391
L73248 4391
" />
</g>
<g style="fill:#000000; fill-opacity:0.0; 
stroke:#000000; stroke-width:39.3701; stroke-opacity:1; 
stroke-linecap:round; stroke-linejoin:round;">
</g>
<g style="fill:#000000; fill-opacity:0.0; 
stroke:#000000; stroke-width:59.0551; stroke-opacity:1; 
stroke-linecap:round; stroke-linejoin:round;">
<path d="M92885 4050
L92641 4050
L92617 4294
L92641 4269
L92690 4245
L92812 4245
L92860 4269
L92885 4294
L92909 4342
L92909 4464
L92885 4513
L92860 4537
L92812 4562
L92690 4562
L92641 4537
L92617 4513
" />
</g>
<g style="fill:#000000; fill-opacity:0.0; 
stroke:#000000; stroke-width:39.3701; stroke-opacity:1; 
stroke-linecap:round; stroke-linejoin:round;">
</g>
<g style="fill:#000000; fill-opacity:0.0; 
stroke:#000000; stroke-width:59.0551; stroke-opacity:1; 
stroke-linecap:round; stroke-linejoin:round;">
<path d="M112545 4050
L112448 4050
L112399 4074
L112375 4099
L112326 4172
L112302 4269
L112302 4464
L112326 4513
L112350 4537
L112399 4562
L112497 4562
L112545 4537
L112570 4513
L112594 4464
L112594 4342
L112570 4294
L112545 4269
L112497 4245
L112399 4245
L112350 4269
L112326 4294
L112302 4342
" />
</g>
<g style="fill:#000000; fill-opacity:0.0; 
stroke:#000000; stroke-width:39.3701; stroke-opacity:1; 
stroke-linecap:round; stroke-linejoin:round;">
</g>
<g style="fill:#000000; fill-opacity:0.0; 
stroke:#000000; stroke-width:59.0551; stroke-opacity:1; 
stroke-linecap:round; stroke-linejoin:round;">
<path d="M23622 77955
L23622 78742
" />
</g>
<g style="fill:#000000; fill-opacity:0.0; 
stroke:#000000; stroke-width:39.3701; stroke-opacity:1; 
stroke-linecap:round; stroke-linejoin:round;">
</g>
<g style="fill:#000000; fill-opacity:0.0; 
stroke:#000000; stroke-width:59.0551; stroke-opacity:1; 
stroke-linecap:round; stroke-linejoin:round;">
<path d="M43307 77955
L43307 78742
" />
</g>
<g style="fill:#000000; fill-opacity:0.0; 
stroke:#000000; stroke-width:39.3701; stroke-opacity:1; 
stroke-linecap:round; stroke-linejoin:round;">
</g>
<g style="fill:#000000; fill-opacity:0.0; 
stroke:#000000; stroke-width:59.0551; stroke-opacity:1; 
stroke-linecap:round; stroke-linejoin:round;">
<path d="M62992 77955
L62992 78742
" />
</g>
<g style="fill:#000000; fill-opacity:0.0; 
stroke:#000000; stroke-width:39.3701; stroke-opacity:1; 
stroke-linecap:round; stroke-linejoin:round;">
</g>
<g style="fill:#000000; fill-opacity:0.0; 
stroke:#000000; stroke-width:59.0551; stroke-opacity:1; 
stroke-linecap:round; stroke-linejoin:round;">
<path d="M82677 77955
L82677 78742
" />
</g>
<g style="fill:#000000; fill-opacity:0.0; 
stroke:#000000; stroke-width:39.3701; stroke-opacity:1; 
stroke-linecap:round; stroke-linejoin:round;">
</g>
<g style="fill:#000000; fill-opacity:0.0; 
stroke:#000000; stroke-width:59.0551; stroke-opacity:1; 
stroke-linecap:round; stroke-linejoin:round;">
<path d="M102362 77955
L102362 78742
" />
</g>
<g style="fill:#000000; fill-opacity:0.0; 
stroke:#000000; stroke-width:39.3701; stroke-opacity:1; 
stroke-linecap:round; stroke-linejoin:round;">
</g>
<g style="fill:#000000; fill-opacity:0.0; 
stroke:#000000; stroke-width:59.0551; stroke-opacity:1; 
stroke-linecap:round; stroke-linejoin:round;">
<path d="M14169 78580
L13877 78580
" />
<path d="M14023 78580
L14023 78069
L13974 78142
L13925 78190
L13877 78215
" />
</g>
<g style="fill:#000000; fill-opacity:0.0; 
stroke:#000000; stroke-width:39.3701; stroke-opacity:1; 
stroke-linecap:round; stroke-linejoin:round;">
</g>
<g style="fill:#000000; fill-opacity:0.0; 
stroke:#000000; stroke-width:59.0551; stroke-opacity:1; 
stroke-linecap:round; stroke-linejoin:round;">
<path d="M33562 78117
L33586 78093
L33635 78069
L33757 78069
L33805 78093
L33830 78117
L33854 78166
L33854 78215
L33830 78288
L33537 78580
L33854 78580
" />
</g>
<g style="fill:#000000; fill-opacity:0.0; 
stroke:#000000; stroke-width:39.3701; stroke-opacity:1; 
stroke-linecap:round; stroke-linejoin:round;">
</g>
<g style="fill:#000000; fill-opacity:0.0; 
stroke:#000000; stroke-width:59.0551; stroke-opacity:1; 
stroke-linecap:round; stroke-linejoin:round;">
<path d="M53222 78069
L53539 78069
L53368 78263
L53442 78263
L53490 78288
L53515 78312
L53539 78361
L53539 78483
L53515 78532
L53490 78556
L53442 78580
L53295 78580
L53247 78556
L53222 78532
" />
</g>
<g style="fill:#000000; fill-opacity:0.0; 
stroke:#000000; stroke-width:39.3701; stroke-opacity:1; 
stroke-linecap:round; stroke-linejoin:round;">
</g>
<g style="fill:#000000; fill-opacity:0.0; 
stroke:#000000; stroke-width:59.0551; stroke-opacity:1; 
stroke-linecap:round; stroke-linejoin:round;">
<path d="M73175 78239
L73175 78580
" />
<path d="M73053 78044
L72932 78410
L73248 78410
" />
</g>
<g style="fill:#000000; fill-opacity:0.0; 
stroke:#000000; stroke-width:39.3701; stroke-opacity:1; 
stroke-linecap:round; stroke-linejoin:round;">
</g>
<g style="fill:#000000; fill-opacity:0.0; 
stroke:#000000; stroke-width:59.0551; stroke-opacity:1; 
stroke-linecap:round; stroke-linejoin:round;">
<path d="M92885 78069
L92641 78069
L92617 78312
L92641 78288
L92690 78263
L92812 78263
L92860 78288
L92885 78312
L92909 78361
L92909 78483
L92885 78532
L92860 78556
L92812 78580
L92690 78580
L92641 78556
L92617 78532
" />
</g>
<g style="fill:#000000; fill-opacity:0.0; 
stroke:#000000; stroke-width:39.3701; stroke-opacity:1; 
stroke-linecap:round; stroke-linejoin:round;">
</g>
<g style="fill:#000000; fill-opacity:0.0; 
stroke:#000000; stroke-width:59.0551; stroke-opacity:1; 
stroke-linecap:round; stroke-linejoin:round;">
<path d="M112545 78069
L112448 78069
L112399 78093
L112375 78117
L112326 78190
L112302 78288
L112302 78483
L112326 78532
L112350 78556
L112399 78580
L112497 78580
L112545 78556
L112570 78532
L112594 78483
L112594 78361
L112570 78312
L112545 78288
L112497 78263
L112399 78263
L112350 78288
L112326 78312
L112302 78361
" />
</g>
<g style="fill:#000000; fill-opacity:0.0; 
stroke:#000000; stroke-width:39.3701; stroke-opacity:1; 
stroke-linecap:round; stroke-linejoin:round;">
</g>
<g style="fill:#000000; fill-opacity:0.0; 
stroke:#000000; stroke-width:59.0551; stroke-opacity:1; 
stroke-linecap:round; stroke-linejoin:round;">
<path d="M3937 23622
L4724 23622
" />
</g>
<g style="fill:#000000; fill-opacity:0.0; 
stroke:#000000; stroke-width:39.3701; stroke-opacity:1; 
stroke-linecap:round; stroke-linejoin:round;">
</g>
<g style="fill:#000000; fill-opacity:0.0; 
stroke:#000000; stroke-width:59.0551; stroke-opacity:1; 
stroke-linecap:round; stroke-linejoin:round;">
<path d="M3937 43307
L4724 43307
" />
</g>
<g style="fill:#000000; fill-opacity:0.0; 
stroke:#000000; stroke-width:39.3701; stroke-opacity:1; 
stroke-linecap:round; stroke-linejoin:round;">
</g>
<g style="fill:#000000; fill-opacity:0.0; 
stroke:#000000; stroke-width:59.0551; stroke-opacity:1; 
stroke-linecap:round; stroke-linejoin:round;">
<path d="M3937 62992
L4724 62992
" />
</g>
<g style="fill:#000000; fill-opacity:0.0; 
stroke:#000000; stroke-width:39.3701; stroke-opacity:1; 
stroke-linecap:round; stroke-linejoin:round;">
</g>
<g style="fill:#000000; fill-opacity:0.0; 
stroke:#000000; stroke-width:59.0551; stroke-opacity:1; 
stroke-linecap:round; stroke-linejoin:round;">
<path d="M4208 13864
L4452 13864
" />
<path d="M4160 14011
L4330 13499
L4501 14011
" />
</g>
<g style="fill:#000000; fill-opacity:0.0; 
stroke:#000000; stroke-width:39.3701; stroke-opacity:1; 
stroke-linecap:round; stroke-linejoin:round;">
</g>
<g style="fill:#000000; fill-opacity:0.0; 
stroke:#000000; stroke-width:59.0551; stroke-opacity:1; 
stroke-linecap:round; stroke-linejoin:round;">
<path d="M4367 33428
L4440 33452
L4464 33476
L4489 33525
L4489 33598
L4464 33647
L4440 33671
L4391 33696
L4196 33696
L4196 33184
L4367 33184
L4416 33208
L4440 33233
L4464 33281
L4464 33330
L4440 33379
L4416 33403
L4367 33428
L4196 33428
" />
</g>
<g style="fill:#000000; fill-opacity:0.0; 
stroke:#000000; stroke-width:39.3701; stroke-opacity:1; 
stroke-linecap:round; stroke-linejoin:round;">
</g>
<g style="fill:#000000; fill-opacity:0.0; 
stroke:#000000; stroke-width:59.0551; stroke-opacity:1; 
stroke-linecap:round; stroke-linejoin:round;">
<path d="M4489 53332
L4464 53356
L4391 53381
L4342 53381
L4269 53356
L4221 53308
L4196 53259
L4172 53161
L4172 53088
L4196 52991
L4221 52942
L4269 52893
L4342 52869
L4391 52869
L4464 52893
L4489 52918
" />
</g>
<g style="fill:#000000; fill-opacity:0.0; 
stroke:#000000; stroke-width:39.3701; stroke-opacity:1; 
stroke-linecap:round; stroke-linejoin:round;">
</g>
<g style="fill:#000000; fill-opacity:0.0; 
stroke:#000000; stroke-width:59.0551; stroke-opacity:1; 
stroke-linecap:round; stroke-linejoin:round;">
<path d="M4196 73066
L4196 72554
L4318 72554
L4391 72578
L4440 72627
L4464 72676
L4489 72773
L4489 72846
L4464 72944
L4440 72993
L4391 73041
L4318 73066
L4196 73066
" />
</g>
<g style="fill:#000000; fill-opacity:0.0; 
stroke:#000000; stroke-width:39.3701; stroke-opacity:1; 
stroke-linecap:round; stroke-linejoin:round;">
</g>
<g style="fill:#000000; fill-opacity:0.0; 
stroke:#000000; stroke-width:59.0551; stroke-opacity:1; 
stroke-linecap:round; stroke-linejoin:round;">
<path d="M112992 23622
L112205 23622
" />
</g>
<g style="fill:#000000; fill-opacity:0.0; 
stroke:#000000; stroke-width:39.3701; stroke-opacity:1; 
stroke-linecap:round; stroke-linejoin:round;">
</g>
<g style="fill:#000000; fill-opacity:0.0; 
stroke:#000000; stroke-width:59.0551; stroke-opacity:1; 
stroke-linecap:round; stroke-linejoin:round;">
<path d="M112992 43307
L112205 43307
" />
</g>
<g style="fill:#000000; fill-opacity:0.0; 
stroke:#000000; stroke-width:39.3701; stroke-opacity:1; 
stroke-linecap:round; stroke-linejoin:round;">
</g>
<g style="fill:#000000; fill-opacity:0.0; 
stroke:#000000; stroke-width:59.0551; stroke-opacity:1; 
stroke-linecap:round; stroke-linejoin:round;">
<path d="M112992 62992
L112205 62992
" />
</g>
<g style="fill:#000000; fill-opacity:0.0; 
stroke:#000000; stroke-width:39.3701; stroke-opacity:1; 
stroke-linecap:round; stroke-linejoin:round;">
</g>
<g style="fill:#000000; fill-opacity:0.0; 
stroke:#000000; stroke-width:59.0551; stroke-opacity:1; 
stroke-linecap:round; stroke-linejoin:round;">
<path d="M112477 13864
L112721 13864
" />
<path d="M112428 14011
L112599 13499
L112769 14011
" />
</g>
<g style="fill:#000000; fill-opacity:0.0; 
stroke:#000000; stroke-width:39.3701; stroke-opacity:1; 
stroke-linecap:round; stroke-linejoin:round;">
</g>
<g style="fill:#000000; fill-opacity:0.0; 
stroke:#000000; stroke-width:59.0551; stroke-opacity:1; 
stroke-linecap:round; stroke-linejoin:round;">
<path d="M112635 33428
L112708 33452
L112733 33476
L112757 33525
L112757 33598
L112733 33647
L112708 33671
L112660 33696
L112465 33696
L112465 33184
L112635 33184
L112684 33208
L112708 33233
L112733 33281
L112733 33330
L112708 33379
L112684 33403
L112635 33428
L112465 33428
" />
</g>
<g style="fill:#000000; fill-opacity:0.0; 
stroke:#000000; stroke-width:39.3701; stroke-opacity:1; 
stroke-linecap:round; stroke-linejoin:round;">
</g>
<g style="fill:#000000; fill-opacity:0.0; 
stroke:#000000; stroke-width:59.0551; stroke-opacity:1; 
stroke-linecap:round; stroke-linejoin:round;">
<path d="M112757 53332
L112733 53356
L112660 53381
L112611 53381
L112538 53356
L112489 53308
L112465 53259
L112440 53161
L112440 53088
L112465 52991
L112489 52942
L112538 52893
L112611 52869
L112660 52869
L112733 52893
L112757 52918
" />
</g>
<g style="fill:#000000; fill-opacity:0.0; 
stroke:#000000; stroke-width:39.3701; stroke-opacity:1; 
stroke-linecap:round; stroke-linejoin:round;">
</g>
<g style="fill:#000000; fill-opacity:0.0; 
stroke:#000000; stroke-width:59.0551; stroke-opacity:1; 
stroke-linecap:round; stroke-linejoin:round;">
<path d="M112465 73066
L112465 72554
L112587 72554
L112660 72578
L112708 72627
L112733 72676
L112757 72773
L112757 72846
L112733 72944
L112708 72993
L112660 73041
L112587 73066
L112465 73066
" />
</g>
<g style="fill:#000000; fill-opacity:0.0; 
stroke:#000000; stroke-width:39.3701; stroke-opacity:1; 
stroke-linecap:round; stroke-linejoin:round;">
</g>
<g style="fill:#000000; fill-opacity:0.0; 
stroke:#000000; stroke-width:59.0551; stroke-opacity:1; 
stroke-linecap:round; stroke-linejoin:round;">
<path d="M78881 76293
L78881 75703
L79022 75703
L79106 75731
L79162 75787
L79190 75843
L79219 75956
L79219 76040
L79190 76153
L79162 76209
L79106 76265
L79022 76293
L78881 76293
" />
<path d="M79725 76293
L79725 75984
L79697 75928
L79640 75899
L79528 75899
L79472 75928
" />
<path d="M79725 76265
L79669 76293
L79528 76293
L79472 76265
L79444 76209
L79444 76153
L79472 76096
L79528 76068
L79669 76068
L79725 76040
" />
<path d="M79922 75899
L80147 75899
" />
<path d="M80006 75703
L80006 76209
L80034 76265
L80090 76293
L80147 76293
" />
<path d="M80568 76265
L80512 76293
L80400 76293
L80343 76265
L80315 76209
L80315 75984
L80343 75928
L80400 75899
L80512 75899
L80568 75928
L80597 75984
L80597 76040
L80315 76096
" />
<path d="M80850 76237
L80878 76265
L80850 76293
L80822 76265
L80850 76237
L80850 76293
" />
<path d="M80850 75928
L80878 75956
L80850 75984
L80822 75956
L80850 75928
L80850 75984
" />
</g>
<g style="fill:#000000; fill-opacity:0.0; 
stroke:#000000; stroke-width:39.3701; stroke-opacity:1; 
stroke-linecap:round; stroke-linejoin:round;">
</g>
<g style="fill:#000000; fill-opacity:0.0; 
stroke:#000000; stroke-width:59.0551; stroke-opacity:1; 
stroke-linecap:round; stroke-linejoin:round;">
<path d="M69685 76577
L112205 76577
" />
</g>
<g style="fill:#000000; fill-opacity:0.0; 
stroke:#000000; stroke-width:39.3701; stroke-opacity:1; 
stroke-linecap:round; stroke-linejoin:round;">
</g>
<g style="fill:#000000; fill-opacity:0.0; 
stroke:#000000; stroke-width:59.0551; stroke-opacity:1; 
stroke-linecap:round; stroke-linejoin:round;">
<path d="M70220 77395
L70220 76805
" />
<path d="M70557 77395
L70304 77058
" />
<path d="M70557 76805
L70220 77142
" />
<path d="M70810 77395
L70810 77002
" />
<path d="M70810 76805
L70782 76833
L70810 76861
L70838 76833
L70810 76805
L70810 76861
" />
<path d="M71429 77339
L71401 77367
L71316 77395
L71260 77395
L71176 77367
L71120 77311
L71091 77255
L71063 77142
L71063 77058
L71091 76946
L71120 76889
L71176 76833
L71260 76805
L71316 76805
L71401 76833
L71429 76861
" />
<path d="M71935 77395
L71935 77086
L71907 77030
L71851 77002
L71738 77002
L71682 77030
" />
<path d="M71935 77367
L71879 77395
L71738 77395
L71682 77367
L71654 77311
L71654 77255
L71682 77199
L71738 77171
L71879 77171
L71935 77142
" />
<path d="M72469 77395
L72469 76805
" />
<path d="M72469 77367
L72413 77395
L72301 77395
L72244 77367
L72216 77339
L72188 77283
L72188 77114
L72216 77058
L72244 77030
L72301 77002
L72413 77002
L72469 77030
" />
<path d="M73201 77086
L73397 77086
" />
<path d="M73482 77395
L73201 77395
L73201 76805
L73482 76805
" />
<path d="M73735 77339
L73763 77367
L73735 77395
L73707 77367
L73735 77339
L73735 77395
" />
<path d="M74016 77395
L74016 76805
L74157 76805
L74241 76833
L74297 76889
L74325 76946
L74354 77058
L74354 77142
L74325 77255
L74297 77311
L74241 77367
L74157 77395
L74016 77395
" />
<path d="M74607 77339
L74635 77367
L74607 77395
L74579 77367
L74607 77339
L74607 77395
" />
<path d="M74860 77227
L75141 77227
" />
<path d="M74804 77395
L75000 76805
L75197 77395
" />
<path d="M75394 77339
L75422 77367
L75394 77395
L75366 77367
L75394 77339
L75394 77395
" />
<path d="M76575 77395
L76575 76805
" />
<path d="M76631 77171
L76800 77395
" />
<path d="M76800 77002
L76575 77227
" />
<path d="M77053 77395
L77053 77002
" />
<path d="M77053 76805
L77025 76833
L77053 76861
L77081 76833
L77053 76805
L77053 76861
" />
<path d="M77588 77367
L77531 77395
L77419 77395
L77363 77367
L77334 77339
L77306 77283
L77306 77114
L77334 77058
L77363 77030
L77419 77002
L77531 77002
L77588 77030
" />
<path d="M78094 77395
L78094 77086
L78066 77030
L78009 77002
L77897 77002
L77841 77030
" />
<path d="M78094 77367
L78037 77395
L77897 77395
L77841 77367
L77813 77311
L77813 77255
L77841 77199
L77897 77171
L78037 77171
L78094 77142
" />
<path d="M78628 77395
L78628 76805
" />
<path d="M78628 77367
L78572 77395
L78459 77395
L78403 77367
L78375 77339
L78347 77283
L78347 77114
L78375 77058
L78403 77030
L78459 77002
L78572 77002
L78628 77030
" />
<path d="M79612 77002
L79612 77395
" />
<path d="M79472 76777
L79331 77199
L79697 77199
" />
<path d="M79922 77339
L79950 77367
L79922 77395
L79894 77367
L79922 77339
L79922 77395
" />
<path d="M80315 76805
L80372 76805
L80428 76833
L80456 76861
L80484 76917
L80512 77030
L80512 77171
L80484 77283
L80456 77339
L80428 77367
L80372 77395
L80315 77395
L80259 77367
L80231 77339
L80203 77283
L80175 77171
L80175 77030
L80203 76917
L80231 76861
L80259 76833
L80315 76805
" />
<path d="M80765 77339
L80793 77367
L80765 77395
L80737 77367
L80765 77339
L80765 77395
" />
<path d="M81328 76805
L81046 76805
L81018 77086
L81046 77058
L81103 77030
L81243 77030
L81300 77058
L81328 77086
L81356 77142
L81356 77283
L81328 77339
L81300 77367
L81243 77395
L81103 77395
L81046 77367
L81018 77339
" />
</g>
<g style="fill:#000000; fill-opacity:0.0; 
stroke:#000000; stroke-width:39.3701; stroke-opacity:1; 
stroke-linecap:round; stroke-linejoin:round;">
</g>
<g style="fill:#000000; fill-opacity:0.0; 
stroke:#000000; stroke-width:59.0551; stroke-opacity:1; 
stroke-linecap:round; stroke-linejoin:round;">
<path d="M69685 75396
L112205 75396
" />
</g>
<g style="fill:#000000; fill-opacity:0.0; 
stroke:#000000; stroke-width:39.3701; stroke-opacity:1; 
stroke-linecap:round; stroke-linejoin:round;">
</g>
<g style="fill:#000000; fill-opacity:0.0; 
stroke:#000000; stroke-width:118.11; stroke-opacity:1; 
stroke-linecap:round; stroke-linejoin:round;">
<path d="M104022 76293
L103825 76012
" />
<path d="M103684 76293
L103684 75703
L103909 75703
L103965 75731
L103994 75759
L104022 75815
L104022 75899
L103994 75956
L103965 75984
L103909 76012
L103684 76012
" />
<path d="M104500 76265
L104444 76293
L104331 76293
L104275 76265
L104247 76209
L104247 75984
L104275 75928
L104331 75899
L104444 75899
L104500 75928
L104528 75984
L104528 76040
L104247 76096
" />
<path d="M104725 75899
L104865 76293
L105006 75899
" />
<path d="M105231 76237
L105259 76265
L105231 76293
L105203 76265
L105231 76237
L105231 76293
" />
<path d="M105231 75928
L105259 75956
L105231 75984
L105203 75956
L105231 75928
L105231 75984
" />
</g>
<g style="fill:#000000; fill-opacity:0.0; 
stroke:#000000; stroke-width:39.3701; stroke-opacity:1; 
stroke-linecap:round; stroke-linejoin:round;">
</g>
<g style="fill:#000000; fill-opacity:0.0; 
stroke:#000000; stroke-width:59.0551; stroke-opacity:1; 
stroke-linecap:round; stroke-linejoin:round;">
<path d="M70192 76265
L70276 76293
L70417 76293
L70473 76265
L70501 76237
L70529 76181
L70529 76124
L70501 76068
L70473 76040
L70417 76012
L70304 75984
L70248 75956
L70220 75928
L70192 75871
L70192 75815
L70220 75759
L70248 75731
L70304 75703
L70445 75703
L70529 75731
" />
<path d="M70782 76293
L70782 75899
" />
<path d="M70782 75703
L70754 75731
L70782 75759
L70810 75731
L70782 75703
L70782 75759
" />
<path d="M71007 75899
L71316 75899
L71007 76293
L71316 76293
" />
<path d="M71766 76265
L71710 76293
L71598 76293
L71541 76265
L71513 76209
L71513 75984
L71541 75928
L71598 75899
L71710 75899
L71766 75928
L71795 75984
L71795 76040
L71513 76096
" />
<path d="M72048 76237
L72076 76265
L72048 76293
L72019 76265
L72048 76237
L72048 76293
" />
<path d="M72048 75928
L72076 75956
L72048 75984
L72019 75956
L72048 75928
L72048 75984
" />
<path d="M72751 76124
L73032 76124
" />
<path d="M72694 76293
L72891 75703
L73088 76293
" />
<path d="M73538 75899
L73538 76293
" />
<path d="M73397 75674
L73257 76096
L73622 76096
" />
</g>
<g style="fill:#000000; fill-opacity:0.0; 
stroke:#000000; stroke-width:39.3701; stroke-opacity:1; 
stroke-linecap:round; stroke-linejoin:round;">
</g>
<g style="fill:#000000; fill-opacity:0.0; 
stroke:#000000; stroke-width:59.0551; stroke-opacity:1; 
stroke-linecap:round; stroke-linejoin:round;">
<path d="M103684 77395
L103684 76805
" />
<path d="M104219 77395
L104219 76805
" />
<path d="M104219 77367
L104162 77395
L104050 77395
L103994 77367
L103965 77339
L103937 77283
L103937 77114
L103965 77058
L103994 77030
L104050 77002
L104162 77002
L104219 77030
" />
<path d="M104500 77339
L104528 77367
L104500 77395
L104472 77367
L104500 77339
L104500 77395
" />
<path d="M104500 77030
L104528 77058
L104500 77086
L104472 77058
L104500 77030
L104500 77086
" />
<path d="M105540 77395
L105203 77395
" />
<path d="M105372 77395
L105372 76805
L105315 76889
L105259 76946
L105203 76974
" />
<path d="M106215 76777
L105709 77536
" />
<path d="M106721 77395
L106384 77395
" />
<path d="M106553 77395
L106553 76805
L106496 76889
L106440 76946
L106384 76974
" />
</g>
<g style="fill:#000000; fill-opacity:0.0; 
stroke:#000000; stroke-width:39.3701; stroke-opacity:1; 
stroke-linecap:round; stroke-linejoin:round;">
</g>
<g style="fill:#000000; fill-opacity:0.0; 
stroke:#000000; stroke-width:59.0551; stroke-opacity:1; 
stroke-linecap:round; stroke-linejoin:round;">
<path d="M69685 73821
L112205 73821
" />
</g>
<g style="fill:#000000; fill-opacity:0.0; 
stroke:#000000; stroke-width:39.3701; stroke-opacity:1; 
stroke-linecap:round; stroke-linejoin:round;">
</g>
<g style="fill:#000000; fill-opacity:0.0; 
stroke:#000000; stroke-width:157.48; stroke-opacity:1; 
stroke-linecap:round; stroke-linejoin:round;">
<path d="M70257 74099
L70707 74099
" />
<path d="M70384 74886
L70482 74099
" />
<path d="M70871 74886
L70937 74361
" />
<path d="M70970 74099
L70927 74136
L70960 74174
L71002 74136
L70970 74099
L70960 74174
" />
<path d="M71199 74361
L71499 74361
" />
<path d="M71345 74099
L71260 74774
L71288 74849
L71359 74886
L71434 74886
" />
<path d="M71809 74886
L71738 74849
L71710 74774
L71795 74099
" />
<path d="M72413 74849
L72334 74886
L72184 74886
L72113 74849
L72085 74774
L72123 74474
L72169 74399
L72249 74361
L72399 74361
L72469 74399
L72498 74474
L72488 74549
L72104 74624
" />
<path d="M72793 74811
L72826 74849
L72783 74886
L72751 74849
L72793 74811
L72783 74886
" />
<path d="M72844 74399
L72877 74436
L72835 74474
L72802 74436
L72844 74399
L72835 74474
" />
</g>
<g style="fill:#000000; fill-opacity:0.0; 
stroke:#000000; stroke-width:39.3701; stroke-opacity:1; 
stroke-linecap:round; stroke-linejoin:round;">
</g>
<g style="fill:#000000; fill-opacity:0.0; 
stroke:#000000; stroke-width:59.0551; stroke-opacity:1; 
stroke-linecap:round; stroke-linejoin:round;">
<path d="M70417 73070
L70220 73070
" />
<path d="M70220 73380
L70220 72789
L70501 72789
" />
<path d="M70726 73380
L70726 72986
" />
<path d="M70726 72789
L70698 72817
L70726 72845
L70754 72817
L70726 72789
L70726 72845
" />
<path d="M71091 73380
L71035 73352
L71007 73295
L71007 72789
" />
<path d="M71541 73352
L71485 73380
L71373 73380
L71316 73352
L71288 73295
L71288 73070
L71316 73014
L71373 72986
L71485 72986
L71541 73014
L71570 73070
L71570 73127
L71288 73183
" />
<path d="M71823 73323
L71851 73352
L71823 73380
L71795 73352
L71823 73323
L71823 73380
" />
<path d="M71823 73014
L71851 73042
L71823 73070
L71795 73042
L71823 73014
L71823 73070
" />
<path d="M72469 72986
L72694 72986
" />
<path d="M72554 73380
L72554 72874
L72582 72817
L72638 72789
L72694 72789
" />
<path d="M72891 73380
L72891 72986
" />
<path d="M72891 72789
L72863 72817
L72891 72845
L72919 72817
L72891 72789
L72891 72845
" />
<path d="M73172 72986
L73172 73380
" />
<path d="M73172 73042
L73201 73014
L73257 72986
L73341 72986
L73397 73014
L73426 73070
L73426 73380
" />
<path d="M73960 73380
L73960 73070
L73932 73014
L73876 72986
L73763 72986
L73707 73014
" />
<path d="M73960 73352
L73904 73380
L73763 73380
L73707 73352
L73679 73295
L73679 73239
L73707 73183
L73763 73155
L73904 73155
L73960 73127
" />
<path d="M74325 73380
L74269 73352
L74241 73295
L74241 72789
" />
<path d="M74410 73436
L74860 73436
" />
<path d="M75000 72986
L75000 73577
" />
<path d="M75000 73014
L75057 72986
L75169 72986
L75225 73014
L75253 73042
L75282 73099
L75282 73267
L75253 73323
L75225 73352
L75169 73380
L75057 73380
L75000 73352
" />
<path d="M75535 73380
L75535 72986
" />
<path d="M75535 73099
L75563 73042
L75591 73014
L75647 72986
L75703 72986
" />
<path d="M75985 73380
L75928 73352
L75900 73323
L75872 73267
L75872 73099
L75900 73042
L75928 73014
L75985 72986
L76069 72986
L76125 73014
L76153 73042
L76181 73099
L76181 73267
L76153 73323
L76125 73352
L76069 73380
L75985 73380
" />
<path d="M76435 72986
L76435 73492
L76406 73548
L76350 73577
L76322 73577
" />
<path d="M76435 72789
L76406 72817
L76435 72845
L76463 72817
L76435 72789
L76435 72845
" />
<path d="M76941 73352
L76885 73380
L76772 73380
L76716 73352
L76688 73295
L76688 73070
L76716 73014
L76772 72986
L76885 72986
L76941 73014
L76969 73070
L76969 73127
L76688 73183
" />
<path d="M77475 73352
L77419 73380
L77306 73380
L77250 73352
L77222 73323
L77194 73267
L77194 73099
L77222 73042
L77250 73014
L77306 72986
L77419 72986
L77475 73014
" />
<path d="M77644 72986
L77869 72986
" />
<path d="M77728 72789
L77728 73295
L77756 73352
L77813 73380
L77869 73380
" />
<path d="M77925 73436
L78375 73436
" />
<path d="M78516 72789
L78516 73267
L78544 73323
L78572 73352
L78628 73380
L78741 73380
L78797 73352
L78825 73323
L78853 73267
L78853 72789
" />
<path d="M79078 72789
L79472 72789
L79078 73380
L79472 73380
" />
<path d="M79697 73070
L79894 73070
" />
<path d="M79978 73380
L79697 73380
L79697 72789
L79978 72789
" />
<path d="M80512 73380
L80231 73380
L80231 72789
" />
<path d="M80709 73323
L80737 73352
L80709 73380
L80681 73352
L80709 73323
L80709 73380
" />
<path d="M80990 73380
L80990 72789
" />
<path d="M81046 73155
L81215 73380
" />
<path d="M81215 72986
L80990 73211
" />
<path d="M81468 73380
L81468 72986
" />
<path d="M81468 72789
L81440 72817
L81468 72845
L81496 72817
L81468 72789
L81468 72845
" />
<path d="M82003 73352
L81946 73380
L81834 73380
L81778 73352
L81750 73323
L81721 73267
L81721 73099
L81750 73042
L81778 73014
L81834 72986
L81946 72986
L82003 73014
" />
<path d="M82509 73380
L82509 73070
L82481 73014
L82424 72986
L82312 72986
L82256 73014
" />
<path d="M82509 73352
L82453 73380
L82312 73380
L82256 73352
L82228 73295
L82228 73239
L82256 73183
L82312 73155
L82453 73155
L82509 73127
" />
<path d="M83043 73380
L83043 72789
" />
<path d="M83043 73352
L82987 73380
L82874 73380
L82818 73352
L82790 73323
L82762 73267
L82762 73099
L82790 73042
L82818 73014
L82874 72986
L82987 72986
L83043 73014
" />
<path d="M83184 73436
L83634 73436
" />
<path d="M83774 72986
L83774 73577
" />
<path d="M83774 73014
L83831 72986
L83943 72986
L83999 73014
L84027 73042
L84055 73099
L84055 73267
L84027 73323
L83999 73352
L83943 73380
L83831 73380
L83774 73352
" />
<path d="M84562 73352
L84505 73380
L84393 73380
L84337 73352
L84309 73323
L84280 73267
L84280 73099
L84309 73042
L84337 73014
L84393 72986
L84505 72986
L84562 73014
" />
<path d="M84815 73380
L84815 72789
" />
<path d="M84815 73014
L84871 72986
L84983 72986
L85040 73014
L85068 73042
L85096 73099
L85096 73267
L85068 73323
L85040 73352
L84983 73380
L84871 73380
L84815 73352
" />
</g>
<g style="fill:#000000; fill-opacity:0.0; 
stroke:#000000; stroke-width:39.3701; stroke-opacity:1; 
stroke-linecap:round; stroke-linejoin:round;">
</g>
<g style="fill:#000000; fill-opacity:0.0; 
stroke:#000000; stroke-width:59.0551; stroke-opacity:1; 
stroke-linecap:round; stroke-linejoin:round;">
<path d="M69685 71459
L112205 71459
" />
</g>
<g style="fill:#000000; fill-opacity:0.0; 
stroke:#000000; stroke-width:39.3701; stroke-opacity:1; 
stroke-linecap:round; stroke-linejoin:round;">
</g>
<g style="fill:#000000; fill-opacity:0.0; 
stroke:#000000; stroke-width:59.0551; stroke-opacity:1; 
stroke-linecap:round; stroke-linejoin:round;">
<path d="M70192 72289
L70276 72317
L70417 72317
L70473 72289
L70501 72260
L70529 72204
L70529 72148
L70501 72092
L70473 72064
L70417 72036
L70304 72007
L70248 71979
L70220 71951
L70192 71895
L70192 71839
L70220 71782
L70248 71754
L70304 71726
L70445 71726
L70529 71754
" />
<path d="M70782 72317
L70782 71726
" />
<path d="M71035 72317
L71035 72007
L71007 71951
L70951 71923
L70867 71923
L70810 71951
L70782 71979
" />
<path d="M71541 72289
L71485 72317
L71373 72317
L71316 72289
L71288 72232
L71288 72007
L71316 71951
L71373 71923
L71485 71923
L71541 71951
L71570 72007
L71570 72064
L71288 72120
" />
<path d="M72048 72289
L71991 72317
L71879 72317
L71823 72289
L71795 72232
L71795 72007
L71823 71951
L71879 71923
L71991 71923
L72048 71951
L72076 72007
L72076 72064
L71795 72120
" />
<path d="M72244 71923
L72469 71923
" />
<path d="M72329 71726
L72329 72232
L72357 72289
L72413 72317
L72469 72317
" />
<path d="M72666 72260
L72694 72289
L72666 72317
L72638 72289
L72666 72260
L72666 72317
" />
<path d="M72666 71951
L72694 71979
L72666 72007
L72638 71979
L72666 71951
L72666 72007
" />
</g>
<g style="fill:#000000; fill-opacity:0.0; 
stroke:#000000; stroke-width:39.3701; stroke-opacity:1; 
stroke-linecap:round; stroke-linejoin:round;">
</g>
<g style="fill:#000000; fill-opacity:0.0; 
stroke:#000000; stroke-width:59.0551; stroke-opacity:1; 
stroke-linecap:round; stroke-linejoin:round;">
<path d="M77559 75396
L77559 76577
" />
</g>
<g style="fill:#000000; fill-opacity:0.0; 
stroke:#000000; stroke-width:39.3701; stroke-opacity:1; 
stroke-linecap:round; stroke-linejoin:round;">
</g>
<g style="fill:#000000; fill-opacity:0.0; 
stroke:#000000; stroke-width:59.0551; stroke-opacity:1; 
stroke-linecap:round; stroke-linejoin:round;">
<path d="M102756 75396
L102756 77955
" />
</g>
<g style="fill:#C2C200; fill-opacity:0.0; 
stroke:#C2C200; stroke-width:59.0551; stroke-opacity:1; 
stroke-linecap:round; stroke-linejoin:round;">
<path d="M56276 26585
L51988 22492
" />
<path d="M56269 37162
L56276 26585
" />
<path d="M49378 22495
L51992 22490
" />
<path d="M52933 40504
L56258 37177
" />
<path d="M27792 40504
L52933 40504
" />
<path d="M27783 22526
L27793 40509
" />
<path d="M49486 22505
L27796 22515
" />
<path d="M31946 29423
L31965 29442
L31983 29498
L31983 29535
L31965 29592
L31927 29629
L31890 29648
L31815 29667
L31758 29667
L31683 29648
L31646 29629
L31609 29592
L31590 29535
L31590 29498
L31609 29442
L31627 29423
" />
<path d="M31983 29048
L31983 29273
" />
<path d="M31983 29160
L31590 29160
L31646 29198
L31683 29235
L31702 29273
" />
<path d="M46731 33368
L46749 33387
L46768 33443
L46768 33481
L46749 33537
L46712 33574
L46674 33593
L46599 33612
L46543 33612
L46468 33593
L46431 33574
L46393 33537
L46374 33481
L46374 33443
L46393 33387
L46412 33368
" />
<path d="M46412 33218
L46393 33200
L46374 33162
L46374 33068
L46393 33031
L46412 33012
L46449 32993
L46487 32993
L46543 33012
L46768 33237
L46768 32993
" />
<path d="M53463 36967
L53482 36985
L53500 37042
L53500 37079
L53482 37135
L53444 37173
L53407 37192
L53332 37210
L53275 37210
L53200 37192
L53163 37173
L53125 37135
L53107 37079
L53107 37042
L53125 36985
L53144 36967
" />
<path d="M53107 36835
L53107 36592
L53257 36723
L53257 36667
L53275 36629
L53294 36610
L53332 36592
L53425 36592
L53463 36610
L53482 36629
L53500 36667
L53500 36779
L53482 36817
L53463 36835
" />
<path d="M48740 28297
L48740 27903
L48834 27903
L48890 27922
L48928 27959
L48946 27997
L48965 28072
L48965 28128
L48946 28203
L48928 28240
L48890 28278
L48834 28297
L48740 28297
" />
<path d="M49340 28297
L49115 28297
" />
<path d="M49228 28297
L49228 27903
L49190 27959
L49153 27997
L49115 28015
" />
<path d="M30345 35673
L30345 35279
L30439 35279
L30495 35298
L30532 35335
L30551 35373
L30570 35448
L30570 35504
L30551 35579
L30532 35617
L30495 35654
L30439 35673
L30345 35673
" />
<path d="M30720 35317
L30739 35298
L30776 35279
L30870 35279
L30907 35298
L30926 35317
L30945 35354
L30945 35392
L30926 35448
L30701 35673
L30945 35673
" />
<path d="M38962 30775
L38962 30381
" />
<path d="M39375 30737
L39356 30756
L39300 30775
L39262 30775
L39206 30756
L39168 30718
L39150 30681
L39131 30606
L39131 30550
L39150 30475
L39168 30437
L39206 30400
L39262 30381
L39300 30381
L39356 30400
L39375 30418
" />
<path d="M39750 30775
L39525 30775
" />
<path d="M39637 30775
L39637 30381
L39600 30437
L39562 30475
L39525 30493
" />
<path d="M34029 32329
L33991 32310
L33954 32273
L33897 32217
L33860 32198
L33822 32198
" />
<path d="M33841 32292
L33804 32273
L33766 32235
L33747 32160
L33747 32029
L33766 31954
L33804 31917
L33841 31898
L33916 31898
L33954 31917
L33991 31954
L34010 32029
L34010 32160
L33991 32235
L33954 32273
L33916 32292
L33841 32292
" />
<path d="M34385 32292
L34160 32292
" />
<path d="M34272 32292
L34272 31898
L34235 31954
L34197 31992
L34160 32010
" />
<path d="M46262 25100
L46244 25137
L46206 25175
L46150 25231
L46131 25269
L46131 25306
" />
<path d="M46225 25287
L46206 25325
L46169 25362
L46094 25381
L45962 25381
L45887 25362
L45850 25325
L45831 25287
L45831 25212
L45850 25175
L45887 25137
L45962 25119
L46094 25119
L46169 25137
L46206 25175
L46225 25212
L46225 25287
" />
<path d="M45831 24988
L45831 24744
L45981 24875
L45981 24819
L46000 24781
L46019 24763
L46056 24744
L46150 24744
L46187 24763
L46206 24781
L46225 24819
L46225 24931
L46206 24969
L46187 24988
" />
<path d="M50936 31151
L50917 31189
L50879 31226
L50823 31282
L50804 31320
L50804 31357
" />
<path d="M50898 31339
L50879 31376
L50842 31414
L50767 31432
L50636 31432
L50561 31414
L50523 31376
L50504 31339
L50504 31264
L50523 31226
L50561 31189
L50636 31170
L50767 31170
L50842 31189
L50879 31226
L50898 31264
L50898 31339
" />
<path d="M50636 30832
L50898 30832
" />
<path d="M50486 30926
L50767 31020
L50767 30776
" />
<path d="M32253 23852
L32065 23983
" />
<path d="M32253 24077
L31859 24077
L31859 23927
L31878 23889
L31896 23870
L31934 23852
L31990 23852
L32028 23870
L32046 23889
L32065 23927
L32065 24077
" />
<path d="M32253 23477
L32253 23702
" />
<path d="M32253 23589
L31859 23589
L31915 23627
L31953 23664
L31971 23702
" />
<path d="M34533 36793
L34345 36924
" />
<path d="M34533 37018
L34139 37018
L34139 36868
L34158 36831
L34177 36812
L34214 36793
L34270 36793
L34308 36812
L34327 36831
L34345 36868
L34345 37018
" />
<path d="M34177 36643
L34158 36624
L34139 36587
L34139 36493
L34158 36456
L34177 36437
L34214 36418
L34252 36418
L34308 36437
L34533 36662
L34533 36418
" />
<path d="M38808 27952
L38621 28083
" />
<path d="M38808 28177
L38414 28177
L38414 28027
L38433 27990
L38452 27971
L38489 27952
L38546 27952
L38583 27971
L38602 27990
L38621 28027
L38621 28177
" />
<path d="M38414 27821
L38414 27577
L38564 27708
L38564 27652
L38583 27615
L38602 27596
L38639 27577
L38733 27577
L38771 27596
L38789 27615
L38808 27652
L38808 27765
L38789 27802
L38771 27821
" />
<path d="M48249 33004
L48118 32817
" />
<path d="M48024 33004
L48024 32611
L48174 32611
L48211 32629
L48230 32648
L48249 32686
L48249 32742
L48230 32779
L48211 32798
L48174 32817
L48024 32817
" />
<path d="M48586 32742
L48586 33004
" />
<path d="M48493 32592
L48399 32873
L48643 32873
" />
<path d="M45489 38459
L45301 38590
" />
<path d="M45489 38684
L45095 38684
L45095 38534
L45114 38496
L45132 38478
L45170 38459
L45226 38459
L45264 38478
L45282 38496
L45301 38534
L45301 38684
" />
<path d="M45095 38103
L45095 38290
L45282 38309
L45264 38290
L45245 38253
L45245 38159
L45264 38121
L45282 38103
L45320 38084
L45414 38084
L45451 38103
L45470 38121
L45489 38159
L45489 38253
L45470 38290
L45451 38309
" />
<path d="M49422 35329
L49234 35460
" />
<path d="M49422 35554
L49028 35554
L49028 35404
L49047 35366
L49065 35348
L49103 35329
L49159 35329
L49197 35348
L49215 35366
L49234 35404
L49234 35554
" />
<path d="M49028 34991
L49028 35066
L49047 35104
L49065 35123
L49122 35160
L49197 35179
L49347 35179
L49384 35160
L49403 35141
L49422 35104
L49422 35029
L49403 34991
L49384 34973
L49347 34954
L49253 34954
L49215 34973
L49197 34991
L49178 35029
L49178 35104
L49197 35141
L49215 35160
L49253 35179
" />
<path d="M36838 34894
L36650 35025
" />
<path d="M36838 35119
L36444 35119
L36444 34969
L36463 34932
L36482 34913
L36519 34894
L36575 34894
L36613 34913
L36632 34932
L36650 34969
L36650 35119
" />
<path d="M36444 34763
L36444 34500
L36838 34669
" />
<path d="M52965 28615
L52834 28427
" />
<path d="M52740 28615
L52740 28221
L52890 28221
L52928 28240
L52947 28258
L52965 28296
L52965 28352
L52947 28390
L52928 28408
L52890 28427
L52740 28427
" />
<path d="M53190 28390
L53153 28371
L53134 28352
L53115 28315
L53115 28296
L53134 28258
L53153 28240
L53190 28221
L53265 28221
L53303 28240
L53322 28258
L53340 28296
L53340 28315
L53322 28352
L53303 28371
L53265 28390
L53190 28390
L53153 28408
L53134 28427
L53115 28465
L53115 28540
L53134 28577
L53153 28596
L53190 28615
L53265 28615
L53303 28596
L53322 28577
L53340 28540
L53340 28465
L53322 28427
L53303 28408
L53265 28390
" />
<path d="M40694 24540
L40562 24352
" />
<path d="M40469 24540
L40469 24146
L40619 24146
L40656 24165
L40675 24184
L40694 24221
L40694 24277
L40675 24315
L40656 24334
L40619 24352
L40469 24352
" />
<path d="M40881 24540
L40956 24540
L40994 24521
L41012 24502
L41050 24446
L41069 24371
L41069 24221
L41050 24184
L41031 24165
L40994 24146
L40919 24146
L40881 24165
L40862 24184
L40844 24221
L40844 24315
L40862 24352
L40881 24371
L40919 24390
L40994 24390
L41031 24371
L41050 24352
L41069 24315
" />
<path d="M41422 36389
L41815 36258
L41422 36127
" />
<path d="M41815 35770
L41628 35902
" />
<path d="M41815 35995
L41422 35995
L41422 35845
L41440 35808
L41459 35789
L41497 35770
L41553 35770
L41590 35789
L41609 35808
L41628 35845
L41628 35995
" />
<path d="M41815 35395
L41815 35620
" />
<path d="M41815 35508
L41422 35508
L41478 35545
L41515 35583
L41534 35620
" />
<path d="M41920 27486
L41901 27523
L41864 27561
L41807 27617
L41789 27655
L41789 27692
" />
<path d="M41882 27673
L41864 27711
L41826 27748
L41751 27767
L41620 27767
L41545 27748
L41507 27711
L41489 27673
L41489 27598
L41507 27561
L41545 27523
L41620 27505
L41751 27505
L41826 27523
L41864 27561
L41882 27598
L41882 27673
" />
<path d="M41526 27355
L41507 27336
L41489 27298
L41489 27205
L41507 27167
L41526 27148
L41564 27130
L41601 27130
L41657 27148
L41882 27373
L41882 27130
" />
</g>
<g style="fill:#008484; fill-opacity:0.0; 
stroke:#008484; stroke-width:59.0551; stroke-opacity:1; 
stroke-linecap:round; stroke-linejoin:round;">
</g>
<g style="fill:#008484; fill-opacity:0.0; 
stroke:#008484; stroke-width:47.2441; stroke-opacity:1; 
stroke-linecap:round; stroke-linejoin:round;">
<path d="M31412 26971
L28805 26971
" />
<path d="M28805 26971
L28805 31743
" />
<path d="M28805 31743
L31412 31743
" />
<path d="M31412 31743
L31412 26971
" />
<path d="M30109 26790
L30109 26971
" />
<path d="M30109 31924
L30109 31743
" />
<path d="M44598 31708
L44598 32299
" />
<path d="M44893 32003
L44303 32003
" />
<path d="M46196 31114
L43000 31114
" />
<path d="M46196 35492
L43000 35492
" />
<path d="M46196 31114
L46196 31704
" />
<path d="M46196 31704
L45901 32000
" />
<path d="M45901 32000
L46196 32295
" />
<path d="M46196 32295
L46196 35492
" />
<path d="M43000 31114
L43000 31704
" />
<path d="M43000 31704
L43295 32000
" />
<path d="M43295 32000
L43000 32295
" />
<path d="M43000 32295
L43000 35492
" />
<path d="M44598 30814
L44598 31114
" />
<path d="M44598 35791
L44598 35492
" />
<path d="M52929 34515
L50322 34515
" />
<path d="M50322 34515
L50322 39287
" />
<path d="M50322 39287
L52929 39287
" />
<path d="M52929 39287
L52929 34515
" />
<path d="M51625 34334
L51625 34515
" />
<path d="M51625 39468
L51625 39287
" />
</g>
<g style="fill:#008484; fill-opacity:0.0; 
stroke:#008484; stroke-width:59.0551; stroke-opacity:1; 
stroke-linecap:round; stroke-linejoin:round;">
<path d="M48269 29119
L47719 29119
" />
<path d="M50019 29119
L50619 29119
" />
<path d="M49869 29419
L49869 28819
" />
<path d="M49969 29419
L49969 28819
" />
<path d="M50069 29119
L50069 28819
" />
<path d="M50069 28819
L48269 28819
" />
<path d="M48269 28819
L48269 29419
" />
<path d="M48269 29419
L50069 29419
" />
<path d="M50069 29419
L50069 29119
" />
</g>
<g style="fill:#008484; fill-opacity:0.0; 
stroke:#008484; stroke-width:47.2441; stroke-opacity:1; 
stroke-linecap:round; stroke-linejoin:round;">
<path d="M30021.8 38263.1 A614.173 614.173 0.0 0 0 31250.2 38263.1 " />
<path d="M30021 36743
L30021 38263
" />
<path d="M31250 36743
L31250 38263
" />
<path d="M30021 36743
L31250 36743
" />
<path d="M31407 36743
L31407 37184
" />
<path d="M31407 37184
L31250 37184
" />
<path d="M31250 37184
L31250 36743
" />
<path d="M31250 36743
L31407 36743
" />
<path d="M30136 36692
L30136 36743
" />
<path d="M30136 36743
L30136 36743
" />
<path d="M30136 36743
L30136 36692
" />
<path d="M30136 36692
L30136 36692
" />
<path d="M31136 36692
L31136 36743
" />
<path d="M31136 36743
L31136 36743
" />
<path d="M31136 36743
L31136 36692
" />
<path d="M31136 36692
L31136 36692
" />
</g>
<g style="fill:#008484; fill-opacity:0.0; 
stroke:#008484; stroke-width:59.0551; stroke-opacity:1; 
stroke-linecap:round; stroke-linejoin:round;">
<circle cx="35995.8" cy="28925" r="157.48" /> 
<circle cx="34106" cy="28925" r="1574.8" /> 
<circle cx="34106" cy="28925" r="2204.72" /> 
<circle cx="49236.2" cy="26992.1" r="157.48" /> 
<circle cx="49236.2" cy="25102.4" r="1574.8" /> 
<circle cx="49236.2" cy="25102.4" r="2204.72" /> 
<circle cx="53515.7" cy="33003.9" r="157.48" /> 
<circle cx="53515.7" cy="31114.2" r="1574.8" /> 
<circle cx="53515.7" cy="31114.2" r="2204.72" /> 
</g>
<g style="fill:#008484; fill-opacity:0.0; 
stroke:#008484; stroke-width:47.2441; stroke-opacity:1; 
stroke-linecap:round; stroke-linejoin:round;">
<path d="M30811 24180
L30811 25211
" />
<path d="M30811 25211
L33338 25211
" />
<path d="M33338 25211
L33338 24180
" />
<path d="M33338 24180
L30811 24180
" />
<path d="M30460 24696
L30811 24696
" />
<path d="M33689 24696
L33338 24696
" />
<path d="M33961 34932
L32654 34932
" />
<path d="M32654 34932
L32654 38523
" />
<path d="M32654 38523
L33961 38523
" />
<path d="M33961 38523
L33961 34932
" />
<path d="M33308 34613
L33308 34932
" />
<path d="M33308 38842
L33308 38523
" />
<path d="M38106 26623
L38236 26623
" />
<path d="M38236 26623
L38236 29150
" />
<path d="M38236 29150
L38106 29150
" />
<path d="M37335 26623
L37205 26623
" />
<path d="M37205 26623
L37205 29150
" />
<path d="M37205 29150
L37335 29150
" />
<circle cx="49315" cy="31779.5" r="653.543" /> 
<path d="M48661 31779
L47748 31779
" />
<circle cx="44578.7" cy="37393.7" r="338.583" /> 
<path d="M44578 37732
L44578 39000
" />
<circle cx="48196.9" cy="34263.8" r="653.543" /> 
<path d="M48196 34917
L48196 35830
" />
<circle cx="35613" cy="33829" r="653.543" /> 
<path d="M35613 34482
L35613 35395
" />
<circle cx="54031.5" cy="27389.8" r="653.543" /> 
<path d="M53377 27389
L52464 27389
" />
<path d="M40027 24755
L41492 24755
" />
<path d="M40027 25433
L41492 25433
" />
<path d="M41169 35043
L41169 37866
" />
<path d="M37381 35043
L37381 37866
" />
<path d="M41169 35043
L37381 35043
" />
<path d="M41169 37866
L37381 37866
" />
<path d="M40677 37866
L40677 39834
" />
<path d="M37874 37866
L37874 39834
" />
<path d="M40677 37866
L37874 37866
" />
<path d="M40677 39834
L37874 39834
" />
<path d="M40480 39834
L40480 43772
" />
<path d="M38070 39834
L38070 43772
" />
<path d="M40480 39834
L38070 39834
" />
<path d="M40480 43772
L38070 43772
" />
</g>
<g style="fill:#008484; fill-opacity:0.0; 
stroke:#008484; stroke-width:59.0551; stroke-opacity:1; 
stroke-linecap:round; stroke-linejoin:round;">
<circle cx="44500" cy="29338.6" r="157.48" /> 
<circle cx="44500" cy="27448.8" r="1574.8" /> 
<circle cx="44500" cy="27448.8" r="2204.72" /> 
</g> 
</svg>
