G04 #@! TF.FileFunction,Soldermask,Bot*
%FSLAX46Y46*%
G04 Gerber Fmt 4.6, Leading zero omitted, Abs format (unit mm)*
G04 Created by KiCad (PCBNEW 4.0.5) date 06/09/17 00:57:21*
%MOMM*%
%LPD*%
G01*
G04 APERTURE LIST*
%ADD10C,0.100000*%
%ADD11C,2.000000*%
%ADD12O,2.000000X2.000000*%
%ADD13R,2.400000X2.400000*%
%ADD14O,2.400000X2.400000*%
%ADD15C,2.099260*%
%ADD16R,2.099260X2.099260*%
%ADD17R,2.200000X2.200000*%
%ADD18C,2.200000*%
%ADD19C,1.924000*%
%ADD20O,1.800000X2.900000*%
%ADD21O,2.900000X1.800000*%
%ADD22C,1.800000*%
%ADD23O,1.800000X1.800000*%
G04 APERTURE END LIST*
D10*
D11*
X76476860Y-67068700D03*
D12*
X76476860Y-82068700D03*
D13*
X113280000Y-77090000D03*
D14*
X113280000Y-92090000D03*
D11*
X131130000Y-86230000D03*
D12*
X131130000Y-101230000D03*
D15*
X119809480Y-73962540D03*
D16*
X129969480Y-73962540D03*
D17*
X76545440Y-92118180D03*
D18*
X79085440Y-92118180D03*
D19*
X102481380Y-80256380D03*
X97401380Y-80256380D03*
X99941380Y-82796380D03*
D20*
X86629240Y-73469500D03*
X88629240Y-73469500D03*
X84629240Y-73469500D03*
D21*
X125060000Y-63760000D03*
X125060000Y-65760000D03*
X125060000Y-61760000D03*
D22*
X133930000Y-79030000D03*
X135930000Y-81030000D03*
X135930000Y-77030000D03*
D11*
X76390500Y-62727840D03*
D12*
X86550500Y-62727840D03*
D11*
X84602320Y-86939120D03*
D12*
X84602320Y-99639120D03*
D11*
X95811340Y-67022980D03*
D12*
X95811340Y-74642980D03*
D11*
X125260000Y-80720000D03*
D12*
X120180000Y-80720000D03*
D22*
X113230000Y-94980000D03*
D23*
X113230000Y-100060000D03*
D11*
X122420000Y-87030000D03*
D12*
X122420000Y-92110000D03*
D11*
X90457020Y-85925660D03*
D12*
X90457020Y-91005660D03*
D11*
X137240000Y-69570000D03*
D12*
X132160000Y-69570000D03*
D22*
X100990000Y-63740000D03*
D23*
X106070000Y-63740000D03*
D18*
X102260000Y-91120000D03*
X99760000Y-91120000D03*
X97260000Y-91120000D03*
D22*
X111030000Y-69720000D03*
X113030000Y-71720000D03*
X113030000Y-67720000D03*
M02*
