G04 #@! TF.FileFunction,Legend,Top*
%FSLAX46Y46*%
G04 Gerber Fmt 4.6, Leading zero omitted, Abs format (unit mm)*
G04 Created by KiCad (PCBNEW 4.0.5) date 06/09/17 00:57:20*
%MOMM*%
%LPD*%
G01*
G04 APERTURE LIST*
%ADD10C,0.100000*%
%ADD11C,0.120000*%
%ADD12C,0.150000*%
G04 APERTURE END LIST*
D10*
D11*
X79786860Y-68508700D02*
X73166860Y-68508700D01*
X73166860Y-68508700D02*
X73166860Y-80628700D01*
X73166860Y-80628700D02*
X79786860Y-80628700D01*
X79786860Y-80628700D02*
X79786860Y-68508700D01*
X76476860Y-68048700D02*
X76476860Y-68508700D01*
X76476860Y-81088700D02*
X76476860Y-80628700D01*
X113280000Y-80540000D02*
X113280000Y-82040000D01*
X114030000Y-81290000D02*
X112530000Y-81290000D01*
X117340000Y-79030000D02*
X109220000Y-79030000D01*
X117340000Y-90150000D02*
X109220000Y-90150000D01*
X117340000Y-79030000D02*
X117340000Y-80530000D01*
X117340000Y-80530000D02*
X116590000Y-81280000D01*
X116590000Y-81280000D02*
X117340000Y-82030000D01*
X117340000Y-82030000D02*
X117340000Y-90150000D01*
X109220000Y-79030000D02*
X109220000Y-80530000D01*
X109220000Y-80530000D02*
X109970000Y-81280000D01*
X109970000Y-81280000D02*
X109220000Y-82030000D01*
X109220000Y-82030000D02*
X109220000Y-90150000D01*
X113280000Y-78270000D02*
X113280000Y-79030000D01*
X113280000Y-90910000D02*
X113280000Y-90150000D01*
X134440000Y-87670000D02*
X127820000Y-87670000D01*
X127820000Y-87670000D02*
X127820000Y-99790000D01*
X127820000Y-99790000D02*
X134440000Y-99790000D01*
X134440000Y-99790000D02*
X134440000Y-87670000D01*
X131130000Y-87210000D02*
X131130000Y-87670000D01*
X131130000Y-100250000D02*
X131130000Y-99790000D01*
D12*
X122603480Y-73962540D02*
X121206480Y-73962540D01*
X127048480Y-73962540D02*
X128572480Y-73962540D01*
X126667480Y-74724540D02*
X126667480Y-73200540D01*
X126921480Y-74724540D02*
X126921480Y-73200540D01*
X127175480Y-73962540D02*
X127175480Y-73200540D01*
X127175480Y-73200540D02*
X122603480Y-73200540D01*
X122603480Y-73200540D02*
X122603480Y-74724540D01*
X122603480Y-74724540D02*
X127175480Y-74724540D01*
X127175480Y-74724540D02*
X127175480Y-73962540D01*
D11*
X79375440Y-97188180D02*
G75*
G02X76255440Y-97188180I-1560000J0D01*
G01*
X76255440Y-93328180D02*
X76255440Y-97188180D01*
X79375440Y-93328180D02*
X79375440Y-97188180D01*
X76255440Y-93328180D02*
X79375440Y-93328180D01*
X79775440Y-93328180D02*
X79775440Y-94448180D01*
X79775440Y-94448180D02*
X79375440Y-94448180D01*
X79375440Y-94448180D02*
X79375440Y-93328180D01*
X79375440Y-93328180D02*
X79775440Y-93328180D01*
X76545440Y-93198180D02*
X76545440Y-93328180D01*
X76545440Y-93328180D02*
X76545440Y-93328180D01*
X76545440Y-93328180D02*
X76545440Y-93198180D01*
X76545440Y-93198180D02*
X76545440Y-93198180D01*
X79085440Y-93198180D02*
X79085440Y-93328180D01*
X79085440Y-93328180D02*
X79085440Y-93328180D01*
X79085440Y-93328180D02*
X79085440Y-93198180D01*
X79085440Y-93198180D02*
X79085440Y-93198180D01*
D12*
X91829240Y-73469500D02*
G75*
G03X91829240Y-73469500I-400000J0D01*
G01*
X90629240Y-73469500D02*
G75*
G03X90629240Y-73469500I-4000000J0D01*
G01*
X92229240Y-73469500D02*
G75*
G03X92229240Y-73469500I-5600000J0D01*
G01*
X125460000Y-68560000D02*
G75*
G03X125460000Y-68560000I-400000J0D01*
G01*
X129060000Y-63760000D02*
G75*
G03X129060000Y-63760000I-4000000J0D01*
G01*
X130660000Y-63760000D02*
G75*
G03X130660000Y-63760000I-5600000J0D01*
G01*
X136330000Y-83830000D02*
G75*
G03X136330000Y-83830000I-400000J0D01*
G01*
X139930000Y-79030000D02*
G75*
G03X139930000Y-79030000I-4000000J0D01*
G01*
X141530000Y-79030000D02*
G75*
G03X141530000Y-79030000I-5600000J0D01*
G01*
D11*
X78260500Y-61417840D02*
X78260500Y-64037840D01*
X78260500Y-64037840D02*
X84680500Y-64037840D01*
X84680500Y-64037840D02*
X84680500Y-61417840D01*
X84680500Y-61417840D02*
X78260500Y-61417840D01*
X77370500Y-62727840D02*
X78260500Y-62727840D01*
X85570500Y-62727840D02*
X84680500Y-62727840D01*
X86262320Y-88729120D02*
X82942320Y-88729120D01*
X82942320Y-88729120D02*
X82942320Y-97849120D01*
X82942320Y-97849120D02*
X86262320Y-97849120D01*
X86262320Y-97849120D02*
X86262320Y-88729120D01*
X84602320Y-87919120D02*
X84602320Y-88729120D01*
X84602320Y-98659120D02*
X84602320Y-97849120D01*
X96791340Y-67622980D02*
X97121340Y-67622980D01*
X97121340Y-67622980D02*
X97121340Y-74042980D01*
X97121340Y-74042980D02*
X96791340Y-74042980D01*
X94831340Y-67622980D02*
X94501340Y-67622980D01*
X94501340Y-67622980D02*
X94501340Y-74042980D01*
X94501340Y-74042980D02*
X94831340Y-74042980D01*
X126920000Y-80720000D02*
G75*
G03X126920000Y-80720000I-1660000J0D01*
G01*
X123600000Y-80720000D02*
X121280000Y-80720000D01*
X114090000Y-94980000D02*
G75*
G03X114090000Y-94980000I-860000J0D01*
G01*
X113230000Y-95840000D02*
X113230000Y-99060000D01*
X124080000Y-87030000D02*
G75*
G03X124080000Y-87030000I-1660000J0D01*
G01*
X122420000Y-88690000D02*
X122420000Y-91010000D01*
X92117020Y-85925660D02*
G75*
G03X92117020Y-85925660I-1660000J0D01*
G01*
X90457020Y-87585660D02*
X90457020Y-89905660D01*
X138900000Y-69570000D02*
G75*
G03X138900000Y-69570000I-1660000J0D01*
G01*
X135580000Y-69570000D02*
X133260000Y-69570000D01*
X101670000Y-62880000D02*
X105390000Y-62880000D01*
X101670000Y-64600000D02*
X105390000Y-64600000D01*
X104570000Y-89010000D02*
X104570000Y-96180000D01*
X94950000Y-89010000D02*
X94950000Y-96180000D01*
X104570000Y-89010000D02*
X94950000Y-89010000D01*
X104570000Y-96180000D02*
X94950000Y-96180000D01*
X103320000Y-96180000D02*
X103320000Y-101180000D01*
X96200000Y-96180000D02*
X96200000Y-101180000D01*
X103320000Y-96180000D02*
X96200000Y-96180000D01*
X103320000Y-101180000D02*
X96200000Y-101180000D01*
X102820000Y-101180000D02*
X102820000Y-111181000D01*
X96700000Y-101180000D02*
X96700000Y-111181000D01*
X102820000Y-101180000D02*
X96700000Y-101180000D01*
X102820000Y-111181000D02*
X96700000Y-111181000D01*
D12*
X113430000Y-74520000D02*
G75*
G03X113430000Y-74520000I-400000J0D01*
G01*
X117030000Y-69720000D02*
G75*
G03X117030000Y-69720000I-4000000J0D01*
G01*
X118630000Y-69720000D02*
G75*
G03X118630000Y-69720000I-5600000J0D01*
G01*
X81144003Y-74735366D02*
X81191622Y-74782985D01*
X81239241Y-74925842D01*
X81239241Y-75021080D01*
X81191622Y-75163938D01*
X81096384Y-75259176D01*
X81001146Y-75306795D01*
X80810670Y-75354414D01*
X80667812Y-75354414D01*
X80477336Y-75306795D01*
X80382098Y-75259176D01*
X80286860Y-75163938D01*
X80239241Y-75021080D01*
X80239241Y-74925842D01*
X80286860Y-74782985D01*
X80334479Y-74735366D01*
X81239241Y-73782985D02*
X81239241Y-74354414D01*
X81239241Y-74068700D02*
X80239241Y-74068700D01*
X80382098Y-74163938D01*
X80477336Y-74259176D01*
X80524955Y-74354414D01*
X118697143Y-84756666D02*
X118744762Y-84804285D01*
X118792381Y-84947142D01*
X118792381Y-85042380D01*
X118744762Y-85185238D01*
X118649524Y-85280476D01*
X118554286Y-85328095D01*
X118363810Y-85375714D01*
X118220952Y-85375714D01*
X118030476Y-85328095D01*
X117935238Y-85280476D01*
X117840000Y-85185238D01*
X117792381Y-85042380D01*
X117792381Y-84947142D01*
X117840000Y-84804285D01*
X117887619Y-84756666D01*
X117887619Y-84375714D02*
X117840000Y-84328095D01*
X117792381Y-84232857D01*
X117792381Y-83994761D01*
X117840000Y-83899523D01*
X117887619Y-83851904D01*
X117982857Y-83804285D01*
X118078095Y-83804285D01*
X118220952Y-83851904D01*
X118792381Y-84423333D01*
X118792381Y-83804285D01*
X135797143Y-93896666D02*
X135844762Y-93944285D01*
X135892381Y-94087142D01*
X135892381Y-94182380D01*
X135844762Y-94325238D01*
X135749524Y-94420476D01*
X135654286Y-94468095D01*
X135463810Y-94515714D01*
X135320952Y-94515714D01*
X135130476Y-94468095D01*
X135035238Y-94420476D01*
X134940000Y-94325238D01*
X134892381Y-94182380D01*
X134892381Y-94087142D01*
X134940000Y-93944285D01*
X134987619Y-93896666D01*
X134892381Y-93563333D02*
X134892381Y-92944285D01*
X135273333Y-93277619D01*
X135273333Y-93134761D01*
X135320952Y-93039523D01*
X135368571Y-92991904D01*
X135463810Y-92944285D01*
X135701905Y-92944285D01*
X135797143Y-92991904D01*
X135844762Y-93039523D01*
X135892381Y-93134761D01*
X135892381Y-93420476D01*
X135844762Y-93515714D01*
X135797143Y-93563333D01*
X123801385Y-71874921D02*
X123801385Y-70874921D01*
X124039480Y-70874921D01*
X124182338Y-70922540D01*
X124277576Y-71017778D01*
X124325195Y-71113016D01*
X124372814Y-71303492D01*
X124372814Y-71446350D01*
X124325195Y-71636826D01*
X124277576Y-71732064D01*
X124182338Y-71827302D01*
X124039480Y-71874921D01*
X123801385Y-71874921D01*
X125325195Y-71874921D02*
X124753766Y-71874921D01*
X125039480Y-71874921D02*
X125039480Y-70874921D01*
X124944242Y-71017778D01*
X124849004Y-71113016D01*
X124753766Y-71160635D01*
X77077345Y-90610561D02*
X77077345Y-89610561D01*
X77315440Y-89610561D01*
X77458298Y-89658180D01*
X77553536Y-89753418D01*
X77601155Y-89848656D01*
X77648774Y-90039132D01*
X77648774Y-90181990D01*
X77601155Y-90372466D01*
X77553536Y-90467704D01*
X77458298Y-90562942D01*
X77315440Y-90610561D01*
X77077345Y-90610561D01*
X78029726Y-89705799D02*
X78077345Y-89658180D01*
X78172583Y-89610561D01*
X78410679Y-89610561D01*
X78505917Y-89658180D01*
X78553536Y-89705799D01*
X78601155Y-89801037D01*
X78601155Y-89896275D01*
X78553536Y-90039132D01*
X77982107Y-90610561D01*
X78601155Y-90610561D01*
X98965190Y-78168761D02*
X98965190Y-77168761D01*
X100012809Y-78073523D02*
X99965190Y-78121142D01*
X99822333Y-78168761D01*
X99727095Y-78168761D01*
X99584237Y-78121142D01*
X99488999Y-78025904D01*
X99441380Y-77930666D01*
X99393761Y-77740190D01*
X99393761Y-77597332D01*
X99441380Y-77406856D01*
X99488999Y-77311618D01*
X99584237Y-77216380D01*
X99727095Y-77168761D01*
X99822333Y-77168761D01*
X99965190Y-77216380D01*
X100012809Y-77263999D01*
X100965190Y-78168761D02*
X100393761Y-78168761D01*
X100679475Y-78168761D02*
X100679475Y-77168761D01*
X100584237Y-77311618D01*
X100488999Y-77406856D01*
X100393761Y-77454475D01*
X86434002Y-82117119D02*
X86338764Y-82069500D01*
X86243526Y-81974262D01*
X86100669Y-81831405D01*
X86005430Y-81783786D01*
X85910192Y-81783786D01*
X85957811Y-82021881D02*
X85862573Y-81974262D01*
X85767335Y-81879024D01*
X85719716Y-81688548D01*
X85719716Y-81355214D01*
X85767335Y-81164738D01*
X85862573Y-81069500D01*
X85957811Y-81021881D01*
X86148288Y-81021881D01*
X86243526Y-81069500D01*
X86338764Y-81164738D01*
X86386383Y-81355214D01*
X86386383Y-81688548D01*
X86338764Y-81879024D01*
X86243526Y-81974262D01*
X86148288Y-82021881D01*
X85957811Y-82021881D01*
X87338764Y-82021881D02*
X86767335Y-82021881D01*
X87053049Y-82021881D02*
X87053049Y-81021881D01*
X86957811Y-81164738D01*
X86862573Y-81259976D01*
X86767335Y-81307595D01*
X117507619Y-63755238D02*
X117460000Y-63850476D01*
X117364762Y-63945714D01*
X117221905Y-64088571D01*
X117174286Y-64183810D01*
X117174286Y-64279048D01*
X117412381Y-64231429D02*
X117364762Y-64326667D01*
X117269524Y-64421905D01*
X117079048Y-64469524D01*
X116745714Y-64469524D01*
X116555238Y-64421905D01*
X116460000Y-64326667D01*
X116412381Y-64231429D01*
X116412381Y-64040952D01*
X116460000Y-63945714D01*
X116555238Y-63850476D01*
X116745714Y-63802857D01*
X117079048Y-63802857D01*
X117269524Y-63850476D01*
X117364762Y-63945714D01*
X117412381Y-64040952D01*
X117412381Y-64231429D01*
X116412381Y-63469524D02*
X116412381Y-62850476D01*
X116793333Y-63183810D01*
X116793333Y-63040952D01*
X116840952Y-62945714D01*
X116888571Y-62898095D01*
X116983810Y-62850476D01*
X117221905Y-62850476D01*
X117317143Y-62898095D01*
X117364762Y-62945714D01*
X117412381Y-63040952D01*
X117412381Y-63326667D01*
X117364762Y-63421905D01*
X117317143Y-63469524D01*
X129377619Y-79125238D02*
X129330000Y-79220476D01*
X129234762Y-79315714D01*
X129091905Y-79458571D01*
X129044286Y-79553810D01*
X129044286Y-79649048D01*
X129282381Y-79601429D02*
X129234762Y-79696667D01*
X129139524Y-79791905D01*
X128949048Y-79839524D01*
X128615714Y-79839524D01*
X128425238Y-79791905D01*
X128330000Y-79696667D01*
X128282381Y-79601429D01*
X128282381Y-79410952D01*
X128330000Y-79315714D01*
X128425238Y-79220476D01*
X128615714Y-79172857D01*
X128949048Y-79172857D01*
X129139524Y-79220476D01*
X129234762Y-79315714D01*
X129282381Y-79410952D01*
X129282381Y-79601429D01*
X128615714Y-78315714D02*
X129282381Y-78315714D01*
X128234762Y-78553810D02*
X128949048Y-78791905D01*
X128949048Y-78172857D01*
X81922881Y-60584506D02*
X81446690Y-60917840D01*
X81922881Y-61155935D02*
X80922881Y-61155935D01*
X80922881Y-60774982D01*
X80970500Y-60679744D01*
X81018119Y-60632125D01*
X81113357Y-60584506D01*
X81256214Y-60584506D01*
X81351452Y-60632125D01*
X81399071Y-60679744D01*
X81446690Y-60774982D01*
X81446690Y-61155935D01*
X81922881Y-59632125D02*
X81922881Y-60203554D01*
X81922881Y-59917840D02*
X80922881Y-59917840D01*
X81065738Y-60013078D01*
X81160976Y-60108316D01*
X81208595Y-60203554D01*
X87714701Y-93455786D02*
X87238510Y-93789120D01*
X87714701Y-94027215D02*
X86714701Y-94027215D01*
X86714701Y-93646262D01*
X86762320Y-93551024D01*
X86809939Y-93503405D01*
X86905177Y-93455786D01*
X87048034Y-93455786D01*
X87143272Y-93503405D01*
X87190891Y-93551024D01*
X87238510Y-93646262D01*
X87238510Y-94027215D01*
X86809939Y-93074834D02*
X86762320Y-93027215D01*
X86714701Y-92931977D01*
X86714701Y-92693881D01*
X86762320Y-92598643D01*
X86809939Y-92551024D01*
X86905177Y-92503405D01*
X87000415Y-92503405D01*
X87143272Y-92551024D01*
X87714701Y-93122453D01*
X87714701Y-92503405D01*
X98573721Y-70999646D02*
X98097530Y-71332980D01*
X98573721Y-71571075D02*
X97573721Y-71571075D01*
X97573721Y-71190122D01*
X97621340Y-71094884D01*
X97668959Y-71047265D01*
X97764197Y-70999646D01*
X97907054Y-70999646D01*
X98002292Y-71047265D01*
X98049911Y-71094884D01*
X98097530Y-71190122D01*
X98097530Y-71571075D01*
X97573721Y-70666313D02*
X97573721Y-70047265D01*
X97954673Y-70380599D01*
X97954673Y-70237741D01*
X98002292Y-70142503D01*
X98049911Y-70094884D01*
X98145150Y-70047265D01*
X98383245Y-70047265D01*
X98478483Y-70094884D01*
X98526102Y-70142503D01*
X98573721Y-70237741D01*
X98573721Y-70523456D01*
X98526102Y-70618694D01*
X98478483Y-70666313D01*
X122553334Y-83832381D02*
X122220000Y-83356190D01*
X121981905Y-83832381D02*
X121981905Y-82832381D01*
X122362858Y-82832381D01*
X122458096Y-82880000D01*
X122505715Y-82927619D01*
X122553334Y-83022857D01*
X122553334Y-83165714D01*
X122505715Y-83260952D01*
X122458096Y-83308571D01*
X122362858Y-83356190D01*
X121981905Y-83356190D01*
X123410477Y-83165714D02*
X123410477Y-83832381D01*
X123172381Y-82784762D02*
X122934286Y-83499048D01*
X123553334Y-83499048D01*
X115542381Y-97686666D02*
X115066190Y-98020000D01*
X115542381Y-98258095D02*
X114542381Y-98258095D01*
X114542381Y-97877142D01*
X114590000Y-97781904D01*
X114637619Y-97734285D01*
X114732857Y-97686666D01*
X114875714Y-97686666D01*
X114970952Y-97734285D01*
X115018571Y-97781904D01*
X115066190Y-97877142D01*
X115066190Y-98258095D01*
X114542381Y-96781904D02*
X114542381Y-97258095D01*
X115018571Y-97305714D01*
X114970952Y-97258095D01*
X114923333Y-97162857D01*
X114923333Y-96924761D01*
X114970952Y-96829523D01*
X115018571Y-96781904D01*
X115113810Y-96734285D01*
X115351905Y-96734285D01*
X115447143Y-96781904D01*
X115494762Y-96829523D01*
X115542381Y-96924761D01*
X115542381Y-97162857D01*
X115494762Y-97258095D01*
X115447143Y-97305714D01*
X125532381Y-89736666D02*
X125056190Y-90070000D01*
X125532381Y-90308095D02*
X124532381Y-90308095D01*
X124532381Y-89927142D01*
X124580000Y-89831904D01*
X124627619Y-89784285D01*
X124722857Y-89736666D01*
X124865714Y-89736666D01*
X124960952Y-89784285D01*
X125008571Y-89831904D01*
X125056190Y-89927142D01*
X125056190Y-90308095D01*
X124532381Y-88879523D02*
X124532381Y-89070000D01*
X124580000Y-89165238D01*
X124627619Y-89212857D01*
X124770476Y-89308095D01*
X124960952Y-89355714D01*
X125341905Y-89355714D01*
X125437143Y-89308095D01*
X125484762Y-89260476D01*
X125532381Y-89165238D01*
X125532381Y-88974761D01*
X125484762Y-88879523D01*
X125437143Y-88831904D01*
X125341905Y-88784285D01*
X125103810Y-88784285D01*
X125008571Y-88831904D01*
X124960952Y-88879523D01*
X124913333Y-88974761D01*
X124913333Y-89165238D01*
X124960952Y-89260476D01*
X125008571Y-89308095D01*
X125103810Y-89355714D01*
X93569401Y-88632326D02*
X93093210Y-88965660D01*
X93569401Y-89203755D02*
X92569401Y-89203755D01*
X92569401Y-88822802D01*
X92617020Y-88727564D01*
X92664639Y-88679945D01*
X92759877Y-88632326D01*
X92902734Y-88632326D01*
X92997972Y-88679945D01*
X93045591Y-88727564D01*
X93093210Y-88822802D01*
X93093210Y-89203755D01*
X92569401Y-88298993D02*
X92569401Y-87632326D01*
X93569401Y-88060898D01*
X134533334Y-72682381D02*
X134200000Y-72206190D01*
X133961905Y-72682381D02*
X133961905Y-71682381D01*
X134342858Y-71682381D01*
X134438096Y-71730000D01*
X134485715Y-71777619D01*
X134533334Y-71872857D01*
X134533334Y-72015714D01*
X134485715Y-72110952D01*
X134438096Y-72158571D01*
X134342858Y-72206190D01*
X133961905Y-72206190D01*
X135104762Y-72110952D02*
X135009524Y-72063333D01*
X134961905Y-72015714D01*
X134914286Y-71920476D01*
X134914286Y-71872857D01*
X134961905Y-71777619D01*
X135009524Y-71730000D01*
X135104762Y-71682381D01*
X135295239Y-71682381D01*
X135390477Y-71730000D01*
X135438096Y-71777619D01*
X135485715Y-71872857D01*
X135485715Y-71920476D01*
X135438096Y-72015714D01*
X135390477Y-72063333D01*
X135295239Y-72110952D01*
X135104762Y-72110952D01*
X135009524Y-72158571D01*
X134961905Y-72206190D01*
X134914286Y-72301429D01*
X134914286Y-72491905D01*
X134961905Y-72587143D01*
X135009524Y-72634762D01*
X135104762Y-72682381D01*
X135295239Y-72682381D01*
X135390477Y-72634762D01*
X135438096Y-72587143D01*
X135485715Y-72491905D01*
X135485715Y-72301429D01*
X135438096Y-72206190D01*
X135390477Y-72158571D01*
X135295239Y-72110952D01*
X103363334Y-62332381D02*
X103030000Y-61856190D01*
X102791905Y-62332381D02*
X102791905Y-61332381D01*
X103172858Y-61332381D01*
X103268096Y-61380000D01*
X103315715Y-61427619D01*
X103363334Y-61522857D01*
X103363334Y-61665714D01*
X103315715Y-61760952D01*
X103268096Y-61808571D01*
X103172858Y-61856190D01*
X102791905Y-61856190D01*
X103839524Y-62332381D02*
X104030000Y-62332381D01*
X104125239Y-62284762D01*
X104172858Y-62237143D01*
X104268096Y-62094286D01*
X104315715Y-61903810D01*
X104315715Y-61522857D01*
X104268096Y-61427619D01*
X104220477Y-61380000D01*
X104125239Y-61332381D01*
X103934762Y-61332381D01*
X103839524Y-61380000D01*
X103791905Y-61427619D01*
X103744286Y-61522857D01*
X103744286Y-61760952D01*
X103791905Y-61856190D01*
X103839524Y-61903810D01*
X103934762Y-61951429D01*
X104125239Y-61951429D01*
X104220477Y-61903810D01*
X104268096Y-61856190D01*
X104315715Y-61760952D01*
X105212381Y-92429524D02*
X106212381Y-92096191D01*
X105212381Y-91762857D01*
X106212381Y-90858095D02*
X105736190Y-91191429D01*
X106212381Y-91429524D02*
X105212381Y-91429524D01*
X105212381Y-91048571D01*
X105260000Y-90953333D01*
X105307619Y-90905714D01*
X105402857Y-90858095D01*
X105545714Y-90858095D01*
X105640952Y-90905714D01*
X105688571Y-90953333D01*
X105736190Y-91048571D01*
X105736190Y-91429524D01*
X106212381Y-89905714D02*
X106212381Y-90477143D01*
X106212381Y-90191429D02*
X105212381Y-90191429D01*
X105355238Y-90286667D01*
X105450476Y-90381905D01*
X105498095Y-90477143D01*
X106477619Y-69815238D02*
X106430000Y-69910476D01*
X106334762Y-70005714D01*
X106191905Y-70148571D01*
X106144286Y-70243810D01*
X106144286Y-70339048D01*
X106382381Y-70291429D02*
X106334762Y-70386667D01*
X106239524Y-70481905D01*
X106049048Y-70529524D01*
X105715714Y-70529524D01*
X105525238Y-70481905D01*
X105430000Y-70386667D01*
X105382381Y-70291429D01*
X105382381Y-70100952D01*
X105430000Y-70005714D01*
X105525238Y-69910476D01*
X105715714Y-69862857D01*
X106049048Y-69862857D01*
X106239524Y-69910476D01*
X106334762Y-70005714D01*
X106382381Y-70100952D01*
X106382381Y-70291429D01*
X105477619Y-69481905D02*
X105430000Y-69434286D01*
X105382381Y-69339048D01*
X105382381Y-69100952D01*
X105430000Y-69005714D01*
X105477619Y-68958095D01*
X105572857Y-68910476D01*
X105668095Y-68910476D01*
X105810952Y-68958095D01*
X106382381Y-69529524D01*
X106382381Y-68910476D01*
M02*
