M48
;DRILL file {KiCad 4.0.5} date 06/12/17 23:07:58
;FORMAT={-:-/ absolute / metric / decimal}
FMAT,2
METRIC,TZ
T1C0.700
T2C0.701
T3C0.762
T4C0.800
T5C0.900
T6C1.000
%
G90
G05
M71
T1
X100.99Y-63.74
X106.07Y-63.74
X113.23Y-94.98
X113.23Y-100.06
T2
X119.809Y-73.963
X129.969Y-73.963
T3
X97.401Y-80.256
X99.941Y-82.796
X102.481Y-80.256
T4
X76.391Y-62.728
X76.477Y-67.069
X76.477Y-82.069
X84.602Y-86.939
X84.602Y-99.639
X84.629Y-73.469
X86.55Y-62.728
X86.629Y-73.469
X88.629Y-73.469
X90.457Y-85.926
X90.457Y-91.006
X95.811Y-67.023
X95.811Y-74.643
X111.03Y-69.72
X113.03Y-67.72
X113.03Y-71.72
X120.18Y-80.72
X122.42Y-87.03
X122.42Y-92.11
X125.06Y-61.76
X125.06Y-63.76
X125.06Y-65.76
X125.26Y-80.72
X131.13Y-86.23
X131.13Y-101.23
X132.16Y-69.57
X133.93Y-79.03
X135.93Y-77.03
X135.93Y-81.03
X137.24Y-69.57
T5
X76.545Y-92.118
X79.085Y-92.118
T6
X97.26Y-91.12
X99.76Y-91.12
X102.26Y-91.12
X113.28Y-77.09
X113.28Y-92.09
T0
M30
