G04 #@! TF.FileFunction,Copper,L1,Top,Signal*
%FSLAX46Y46*%
G04 Gerber Fmt 4.6, Leading zero omitted, Abs format (unit mm)*
G04 Created by KiCad (PCBNEW 4.0.5) date 06/09/17 00:57:20*
%MOMM*%
%LPD*%
G01*
G04 APERTURE LIST*
%ADD10C,0.100000*%
%ADD11C,1.600000*%
%ADD12O,1.600000X1.600000*%
%ADD13R,2.000000X2.000000*%
%ADD14O,2.000000X2.000000*%
%ADD15C,1.699260*%
%ADD16R,1.699260X1.699260*%
%ADD17R,1.800000X1.800000*%
%ADD18C,1.800000*%
%ADD19C,1.524000*%
%ADD20R,3.000000X3.000000*%
%ADD21O,1.400000X2.500000*%
%ADD22O,2.500000X1.400000*%
%ADD23C,1.400000*%
%ADD24O,1.400000X1.400000*%
%ADD25C,0.250000*%
%ADD26C,0.254000*%
G04 APERTURE END LIST*
D10*
D11*
X76476860Y-67068700D03*
D12*
X76476860Y-82068700D03*
D13*
X113280000Y-77090000D03*
D14*
X113280000Y-92090000D03*
D11*
X131130000Y-86230000D03*
D12*
X131130000Y-101230000D03*
D15*
X119809480Y-73962540D03*
D16*
X129969480Y-73962540D03*
D17*
X76545440Y-92118180D03*
D18*
X79085440Y-92118180D03*
D19*
X102481380Y-80256380D03*
X97401380Y-80256380D03*
X99941380Y-82796380D03*
D20*
X99941380Y-80256380D03*
D21*
X86629240Y-73469500D03*
X88629240Y-73469500D03*
X84629240Y-73469500D03*
D22*
X125060000Y-63760000D03*
X125060000Y-65760000D03*
X125060000Y-61760000D03*
D23*
X133930000Y-79030000D03*
X135930000Y-81030000D03*
X135930000Y-77030000D03*
D11*
X76390500Y-62727840D03*
D12*
X86550500Y-62727840D03*
D11*
X84602320Y-86939120D03*
D12*
X84602320Y-99639120D03*
D11*
X95811340Y-67022980D03*
D12*
X95811340Y-74642980D03*
D11*
X125260000Y-80720000D03*
D12*
X120180000Y-80720000D03*
D23*
X113230000Y-94980000D03*
D24*
X113230000Y-100060000D03*
D11*
X122420000Y-87030000D03*
D12*
X122420000Y-92110000D03*
D11*
X90457020Y-85925660D03*
D12*
X90457020Y-91005660D03*
D11*
X137240000Y-69570000D03*
D12*
X132160000Y-69570000D03*
D23*
X100990000Y-63740000D03*
D24*
X106070000Y-63740000D03*
D18*
X102260000Y-91120000D03*
X99760000Y-91120000D03*
X97260000Y-91120000D03*
D23*
X111030000Y-69720000D03*
X113030000Y-71720000D03*
X113030000Y-67720000D03*
D25*
X95811340Y-67022980D02*
X97707020Y-67022980D01*
X97707020Y-67022980D02*
X100990000Y-63740000D01*
X100990000Y-63740000D02*
X104552998Y-63740000D01*
X106608880Y-64950340D02*
X106608880Y-65003680D01*
X107327700Y-65979040D02*
X107891580Y-66542920D01*
X104552998Y-63740000D02*
X105577999Y-64765001D01*
X105577999Y-64765001D02*
X106423541Y-64765001D01*
X106423541Y-64765001D02*
X106608880Y-64950340D01*
X107327700Y-65874900D02*
X107327700Y-65979040D01*
X112019949Y-69720000D02*
X111030000Y-69720000D01*
X106608880Y-65003680D02*
X106918760Y-65313560D01*
X106918760Y-65313560D02*
X106918760Y-65465960D01*
X106918760Y-65465960D02*
X107327700Y-65874900D01*
X114055001Y-68212001D02*
X112547002Y-69720000D01*
X107891580Y-66542920D02*
X113369922Y-66542920D01*
X113369922Y-66542920D02*
X114055001Y-67227999D01*
X114055001Y-67227999D02*
X114055001Y-68212001D01*
X112547002Y-69720000D02*
X112019949Y-69720000D01*
X76476860Y-67068700D02*
X73939400Y-64531240D01*
X73939400Y-64531240D02*
X73939400Y-61699140D01*
X73939400Y-61699140D02*
X74889360Y-60749180D01*
X74889360Y-60749180D02*
X89537540Y-60749180D01*
X89537540Y-60749180D02*
X95811340Y-67022980D01*
X76476860Y-67068700D02*
X77276859Y-66268701D01*
X77276859Y-66268701D02*
X77276859Y-63614199D01*
X77276859Y-63614199D02*
X77190499Y-63527839D01*
X77190499Y-63527839D02*
X76390500Y-62727840D01*
X99760000Y-91120000D02*
X99760000Y-92392792D01*
X105957308Y-98590100D02*
X128490100Y-98590100D01*
X128490100Y-98590100D02*
X131130000Y-101230000D01*
X99760000Y-92392792D02*
X105957308Y-98590100D01*
X76545440Y-92118180D02*
X77272438Y-92118180D01*
X77272438Y-92118180D02*
X79184957Y-90205661D01*
X79184957Y-90205661D02*
X89657021Y-90205661D01*
X89657021Y-90205661D02*
X90457020Y-91005660D01*
X97401380Y-80256380D02*
X97401380Y-88761380D01*
X97401380Y-88761380D02*
X99760000Y-91120000D01*
X76545440Y-92118180D02*
X76545440Y-82137280D01*
X76545440Y-82137280D02*
X76476860Y-82068700D01*
X99760000Y-91120000D02*
X98492500Y-89852500D01*
X98492500Y-89852500D02*
X91610180Y-89852500D01*
X91610180Y-89852500D02*
X91257019Y-90205661D01*
X91257019Y-90205661D02*
X90457020Y-91005660D01*
X102481380Y-80256380D02*
X102481380Y-79211378D01*
X102481380Y-79211378D02*
X97912982Y-74642980D01*
X97912982Y-74642980D02*
X96942710Y-74642980D01*
X96942710Y-74642980D02*
X95811340Y-74642980D01*
X106923840Y-80256380D02*
X110090220Y-77090000D01*
X110090220Y-77090000D02*
X113280000Y-77090000D01*
X102481380Y-80256380D02*
X106923840Y-80256380D01*
X120180000Y-80720000D02*
X116550000Y-77090000D01*
X116550000Y-77090000D02*
X113280000Y-77090000D01*
X113280000Y-92090000D02*
X113280000Y-94930000D01*
X113280000Y-94930000D02*
X113230000Y-94980000D01*
X113280000Y-92090000D02*
X122400000Y-92090000D01*
X122400000Y-92090000D02*
X122420000Y-92110000D01*
X99941380Y-82796380D02*
X103986380Y-82796380D01*
X103986380Y-82796380D02*
X113280000Y-92090000D01*
X135930000Y-81030000D02*
X131130000Y-85830000D01*
X131130000Y-85830000D02*
X131130000Y-86230000D01*
X122420000Y-87030000D02*
X130330001Y-87029999D01*
X130330001Y-87029999D02*
X131130000Y-86230000D01*
X119809480Y-73962540D02*
X124202020Y-69570000D01*
X124202020Y-69570000D02*
X132160000Y-69570000D01*
X113030000Y-71720000D02*
X115272540Y-73962540D01*
X115272540Y-73962540D02*
X119809480Y-73962540D01*
X129969480Y-73962540D02*
X129969480Y-76010520D01*
X129969480Y-76010520D02*
X125260000Y-80720000D01*
X79085440Y-92118180D02*
X84602320Y-97635060D01*
X84602320Y-97635060D02*
X84602320Y-99639120D01*
X86550500Y-62727840D02*
X86550500Y-73390760D01*
X86550500Y-73390760D02*
X86629240Y-73469500D01*
X113030000Y-67720000D02*
X111512998Y-67720000D01*
X110004999Y-70212001D02*
X110537999Y-70745001D01*
X111512998Y-67720000D02*
X110004999Y-69227999D01*
X110004999Y-69227999D02*
X110004999Y-70212001D01*
X110537999Y-70745001D02*
X112487997Y-70745001D01*
X112487997Y-70745001D02*
X117472998Y-65760000D01*
X117472998Y-65760000D02*
X123560000Y-65760000D01*
X123560000Y-65760000D02*
X125060000Y-65760000D01*
X88629240Y-73469500D02*
X91029822Y-73469500D01*
X96779322Y-67720000D02*
X112040051Y-67720000D01*
X112040051Y-67720000D02*
X113030000Y-67720000D01*
X91029822Y-73469500D02*
X96779322Y-67720000D01*
X88629240Y-73469500D02*
X88629240Y-84097880D01*
X88629240Y-84097880D02*
X90457020Y-85925660D01*
X84602320Y-86939120D02*
X84602320Y-73496420D01*
X84602320Y-73496420D02*
X84629240Y-73469500D01*
X125060000Y-63760000D02*
X106090000Y-63760000D01*
X106090000Y-63760000D02*
X106070000Y-63740000D01*
X137240000Y-69570000D02*
X136440001Y-70369999D01*
X136440001Y-70369999D02*
X136440001Y-75002997D01*
X136440001Y-75002997D02*
X133930000Y-77512998D01*
X133930000Y-77512998D02*
X133930000Y-78040051D01*
X133930000Y-78040051D02*
X133930000Y-79030000D01*
X125060000Y-63760000D02*
X131430000Y-63760000D01*
X131430000Y-63760000D02*
X137240000Y-69570000D01*
X139915900Y-66949320D02*
X139915900Y-73044100D01*
X139915900Y-73044100D02*
X135930000Y-77030000D01*
X134726580Y-61760000D02*
X139915900Y-66949320D01*
X125060000Y-61760000D02*
X134726580Y-61760000D01*
X97260000Y-91120000D02*
X97260000Y-92392792D01*
X97260000Y-92392792D02*
X104927208Y-100060000D01*
X112240051Y-100060000D02*
X113230000Y-100060000D01*
X104927208Y-100060000D02*
X112240051Y-100060000D01*
D26*
G36*
X142230839Y-67829522D02*
X142213448Y-94107468D01*
X134155603Y-102170160D01*
X132188528Y-102170160D01*
X132282389Y-102085134D01*
X132521914Y-101579041D01*
X132400629Y-101357000D01*
X131257000Y-101357000D01*
X131257000Y-101377000D01*
X131003000Y-101377000D01*
X131003000Y-101357000D01*
X129859371Y-101357000D01*
X129738086Y-101579041D01*
X129977611Y-102085134D01*
X130071472Y-102170160D01*
X71303818Y-102170160D01*
X71298388Y-92403930D01*
X75010440Y-92403930D01*
X75010440Y-93144490D01*
X75107113Y-93377879D01*
X75285742Y-93556507D01*
X75519131Y-93653180D01*
X76259690Y-93653180D01*
X76418440Y-93494430D01*
X76418440Y-92245180D01*
X75169190Y-92245180D01*
X75010440Y-92403930D01*
X71298388Y-92403930D01*
X71297659Y-91091870D01*
X75010440Y-91091870D01*
X75010440Y-91832430D01*
X75169190Y-91991180D01*
X76418440Y-91991180D01*
X76418440Y-90741930D01*
X76672440Y-90741930D01*
X76672440Y-91991180D01*
X76692440Y-91991180D01*
X76692440Y-92245180D01*
X76672440Y-92245180D01*
X76672440Y-93494430D01*
X76831190Y-93653180D01*
X77571749Y-93653180D01*
X77805138Y-93556507D01*
X77983767Y-93377879D01*
X78039559Y-93243186D01*
X78214797Y-93418731D01*
X78778770Y-93652913D01*
X79389431Y-93653445D01*
X79500153Y-93607695D01*
X83842320Y-97949862D01*
X83842320Y-98426125D01*
X83587622Y-98596309D01*
X83276553Y-99061856D01*
X83167320Y-99611007D01*
X83167320Y-99667233D01*
X83276553Y-100216384D01*
X83587622Y-100681931D01*
X84053169Y-100993000D01*
X84602320Y-101102233D01*
X85151471Y-100993000D01*
X85617018Y-100681931D01*
X85928087Y-100216384D01*
X86037320Y-99667233D01*
X86037320Y-99611007D01*
X85928087Y-99061856D01*
X85617018Y-98596309D01*
X85362320Y-98426125D01*
X85362320Y-97635060D01*
X85304468Y-97344221D01*
X85139721Y-97097659D01*
X80575206Y-92533144D01*
X80620173Y-92424850D01*
X80620705Y-91814189D01*
X80430849Y-91354701D01*
X89065106Y-91354701D01*
X89304631Y-91860794D01*
X89719597Y-92236701D01*
X90107981Y-92397564D01*
X90330020Y-92275575D01*
X90330020Y-91132660D01*
X90584020Y-91132660D01*
X90584020Y-92275575D01*
X90806059Y-92397564D01*
X91194443Y-92236701D01*
X91609409Y-91860794D01*
X91816140Y-91423991D01*
X95724735Y-91423991D01*
X95957932Y-91988371D01*
X96389357Y-92420551D01*
X96515980Y-92473130D01*
X96557852Y-92683631D01*
X96722599Y-92930193D01*
X104389807Y-100597401D01*
X104636369Y-100762148D01*
X104927208Y-100820000D01*
X112145600Y-100820000D01*
X112286012Y-101030142D01*
X112719118Y-101319533D01*
X113230000Y-101421154D01*
X113740882Y-101319533D01*
X114173988Y-101030142D01*
X114273668Y-100880959D01*
X129738086Y-100880959D01*
X129859371Y-101103000D01*
X131003000Y-101103000D01*
X131003000Y-99960085D01*
X131257000Y-99960085D01*
X131257000Y-101103000D01*
X132400629Y-101103000D01*
X132521914Y-100880959D01*
X132282389Y-100374866D01*
X131867423Y-99998959D01*
X131479039Y-99838096D01*
X131257000Y-99960085D01*
X131003000Y-99960085D01*
X130780961Y-99838096D01*
X130392577Y-99998959D01*
X129977611Y-100374866D01*
X129738086Y-100880959D01*
X114273668Y-100880959D01*
X114463379Y-100597036D01*
X114565000Y-100086154D01*
X114565000Y-100033846D01*
X114463379Y-99522964D01*
X114173988Y-99089858D01*
X113740882Y-98800467D01*
X113230000Y-98698846D01*
X112719118Y-98800467D01*
X112286012Y-99089858D01*
X112145600Y-99300000D01*
X105242010Y-99300000D01*
X98246328Y-92304318D01*
X98350668Y-92200159D01*
X98859446Y-92200159D01*
X98945852Y-92456643D01*
X99519336Y-92666458D01*
X100129460Y-92640839D01*
X100574148Y-92456643D01*
X100660554Y-92200159D01*
X99760000Y-91299605D01*
X98859446Y-92200159D01*
X98350668Y-92200159D01*
X98560551Y-91990643D01*
X98564294Y-91981628D01*
X98679841Y-92020554D01*
X99580395Y-91120000D01*
X99939605Y-91120000D01*
X100840159Y-92020554D01*
X100955214Y-91981793D01*
X100957932Y-91988371D01*
X101389357Y-92420551D01*
X101953330Y-92654733D01*
X102563991Y-92655265D01*
X103128371Y-92422068D01*
X103560551Y-91990643D01*
X103794733Y-91426670D01*
X103795265Y-90816009D01*
X103562068Y-90251629D01*
X103130643Y-89819449D01*
X102566670Y-89585267D01*
X101956009Y-89584735D01*
X101391629Y-89817932D01*
X100959449Y-90249357D01*
X100955706Y-90258372D01*
X100840159Y-90219446D01*
X99939605Y-91120000D01*
X99580395Y-91120000D01*
X98679841Y-90219446D01*
X98564786Y-90258207D01*
X98562068Y-90251629D01*
X98350650Y-90039841D01*
X98859446Y-90039841D01*
X99760000Y-90940395D01*
X100660554Y-90039841D01*
X100574148Y-89783357D01*
X100000664Y-89573542D01*
X99390540Y-89599161D01*
X98945852Y-89783357D01*
X98859446Y-90039841D01*
X98350650Y-90039841D01*
X98130643Y-89819449D01*
X97566670Y-89585267D01*
X96956009Y-89584735D01*
X96391629Y-89817932D01*
X95959449Y-90249357D01*
X95725267Y-90813330D01*
X95724735Y-91423991D01*
X91816140Y-91423991D01*
X91848934Y-91354701D01*
X91727649Y-91132660D01*
X90584020Y-91132660D01*
X90330020Y-91132660D01*
X89186391Y-91132660D01*
X89065106Y-91354701D01*
X80430849Y-91354701D01*
X80387508Y-91249809D01*
X79956083Y-90817629D01*
X79568328Y-90656619D01*
X89065106Y-90656619D01*
X89186391Y-90878660D01*
X90330020Y-90878660D01*
X90330020Y-89735745D01*
X90584020Y-89735745D01*
X90584020Y-90878660D01*
X91727649Y-90878660D01*
X91848934Y-90656619D01*
X91609409Y-90150526D01*
X91194443Y-89774619D01*
X90806059Y-89613756D01*
X90584020Y-89735745D01*
X90330020Y-89735745D01*
X90107981Y-89613756D01*
X89719597Y-89774619D01*
X89304631Y-90150526D01*
X89065106Y-90656619D01*
X79568328Y-90656619D01*
X79392110Y-90583447D01*
X78781449Y-90582915D01*
X78217069Y-90816112D01*
X78039599Y-90993272D01*
X77983767Y-90858481D01*
X77805138Y-90679853D01*
X77571749Y-90583180D01*
X76831190Y-90583180D01*
X76672440Y-90741930D01*
X76418440Y-90741930D01*
X76259690Y-90583180D01*
X75519131Y-90583180D01*
X75285742Y-90679853D01*
X75107113Y-90858481D01*
X75010440Y-91091870D01*
X71297659Y-91091870D01*
X71292836Y-82417741D01*
X75084946Y-82417741D01*
X75324471Y-82923834D01*
X75739437Y-83299741D01*
X76127821Y-83460604D01*
X76349860Y-83338615D01*
X76349860Y-82195700D01*
X76603860Y-82195700D01*
X76603860Y-83338615D01*
X76825899Y-83460604D01*
X77214283Y-83299741D01*
X77629249Y-82923834D01*
X77868774Y-82417741D01*
X77747489Y-82195700D01*
X76603860Y-82195700D01*
X76349860Y-82195700D01*
X75206231Y-82195700D01*
X75084946Y-82417741D01*
X71292836Y-82417741D01*
X71292448Y-81719659D01*
X75084946Y-81719659D01*
X75206231Y-81941700D01*
X76349860Y-81941700D01*
X76349860Y-80798785D01*
X76603860Y-80798785D01*
X76603860Y-81941700D01*
X77747489Y-81941700D01*
X77868774Y-81719659D01*
X77629249Y-81213566D01*
X77214283Y-80837659D01*
X76825899Y-80676796D01*
X76603860Y-80798785D01*
X76349860Y-80798785D01*
X76127821Y-80676796D01*
X75739437Y-80837659D01*
X75324471Y-81213566D01*
X75084946Y-81719659D01*
X71292448Y-81719659D01*
X71281313Y-61699140D01*
X73179400Y-61699140D01*
X73179400Y-64531240D01*
X73237252Y-64822079D01*
X73401999Y-65068641D01*
X75063604Y-66730246D01*
X75042110Y-66782009D01*
X75041612Y-67352887D01*
X75259617Y-67880500D01*
X75662937Y-68284524D01*
X76190169Y-68503450D01*
X76761047Y-68503948D01*
X77288660Y-68285943D01*
X77692684Y-67882623D01*
X77911610Y-67355391D01*
X77912108Y-66784513D01*
X77880232Y-66707368D01*
X77979007Y-66559541D01*
X77997216Y-66467999D01*
X78036859Y-66268701D01*
X78036859Y-63614199D01*
X77979007Y-63323360D01*
X77814260Y-63076798D01*
X77803756Y-63066294D01*
X77825250Y-63014531D01*
X77825748Y-62443653D01*
X77607743Y-61916040D01*
X77204423Y-61512016D01*
X77197593Y-61509180D01*
X85812939Y-61509180D01*
X85507689Y-61713142D01*
X85196620Y-62178689D01*
X85087387Y-62727840D01*
X85196620Y-63276991D01*
X85507689Y-63742538D01*
X85790500Y-63931507D01*
X85790500Y-71868259D01*
X85685252Y-71938583D01*
X85629240Y-72022411D01*
X85573228Y-71938583D01*
X85140122Y-71649192D01*
X84629240Y-71547571D01*
X84118358Y-71649192D01*
X83685252Y-71938583D01*
X83395861Y-72371689D01*
X83294240Y-72882571D01*
X83294240Y-74056429D01*
X83395861Y-74567311D01*
X83685252Y-75000417D01*
X83842320Y-75105366D01*
X83842320Y-85700474D01*
X83790520Y-85721877D01*
X83386496Y-86125197D01*
X83167570Y-86652429D01*
X83167072Y-87223307D01*
X83385077Y-87750920D01*
X83788397Y-88154944D01*
X84315629Y-88373870D01*
X84886507Y-88374368D01*
X85414120Y-88156363D01*
X85818144Y-87753043D01*
X86037070Y-87225811D01*
X86037568Y-86654933D01*
X85819563Y-86127320D01*
X85416243Y-85723296D01*
X85362320Y-85700905D01*
X85362320Y-75141341D01*
X85573228Y-75000417D01*
X85629240Y-74916589D01*
X85685252Y-75000417D01*
X86118358Y-75289808D01*
X86629240Y-75391429D01*
X87140122Y-75289808D01*
X87573228Y-75000417D01*
X87629240Y-74916589D01*
X87685252Y-75000417D01*
X87869240Y-75123353D01*
X87869240Y-84097880D01*
X87927092Y-84388719D01*
X88091839Y-84635281D01*
X89043764Y-85587206D01*
X89022270Y-85638969D01*
X89021772Y-86209847D01*
X89239777Y-86737460D01*
X89643097Y-87141484D01*
X90170329Y-87360410D01*
X90741207Y-87360908D01*
X91268820Y-87142903D01*
X91672844Y-86739583D01*
X91891770Y-86212351D01*
X91892268Y-85641473D01*
X91674263Y-85113860D01*
X91270943Y-84709836D01*
X90743711Y-84490910D01*
X90172833Y-84490412D01*
X90118871Y-84512709D01*
X89389240Y-83783078D01*
X89389240Y-80048682D01*
X95992236Y-80048682D01*
X96020018Y-80603748D01*
X96178983Y-80987523D01*
X96421167Y-81056988D01*
X97221775Y-80256380D01*
X96421167Y-79455772D01*
X96178983Y-79525237D01*
X95992236Y-80048682D01*
X89389240Y-80048682D01*
X89389240Y-75123353D01*
X89573228Y-75000417D01*
X89830843Y-74614867D01*
X94376340Y-74614867D01*
X94376340Y-74671093D01*
X94485573Y-75220244D01*
X94796642Y-75685791D01*
X95262189Y-75996860D01*
X95811340Y-76106093D01*
X96360491Y-75996860D01*
X96826038Y-75685791D01*
X97015007Y-75402980D01*
X97598180Y-75402980D01*
X100304140Y-78108940D01*
X98441380Y-78108940D01*
X98206063Y-78153218D01*
X97989939Y-78292290D01*
X97844949Y-78504490D01*
X97793940Y-78756380D01*
X97793940Y-78913188D01*
X97609078Y-78847236D01*
X97054012Y-78875018D01*
X96670237Y-79033983D01*
X96600772Y-79276167D01*
X97401380Y-80076775D01*
X97415523Y-80062633D01*
X97595128Y-80242238D01*
X97580985Y-80256380D01*
X97595128Y-80270523D01*
X97415523Y-80450128D01*
X97401380Y-80435985D01*
X96600772Y-81236593D01*
X96670237Y-81478777D01*
X97193682Y-81665524D01*
X97748748Y-81637742D01*
X97793940Y-81619023D01*
X97793940Y-81756380D01*
X97838218Y-81991697D01*
X97977290Y-82207821D01*
X98189490Y-82352811D01*
X98441380Y-82403820D01*
X98591736Y-82403820D01*
X98544623Y-82517280D01*
X98544138Y-83073041D01*
X98756370Y-83586683D01*
X99149010Y-83980009D01*
X99662280Y-84193137D01*
X100218041Y-84193622D01*
X100731683Y-83981390D01*
X101125009Y-83588750D01*
X101138450Y-83556380D01*
X103671578Y-83556380D01*
X111732628Y-91617430D01*
X111645000Y-92057968D01*
X111645000Y-92122032D01*
X111769457Y-92747719D01*
X112123880Y-93278152D01*
X112520000Y-93542830D01*
X112520000Y-93828894D01*
X112474771Y-93847582D01*
X112098902Y-94222796D01*
X111895232Y-94713287D01*
X111894769Y-95244383D01*
X112097582Y-95735229D01*
X112472796Y-96111098D01*
X112963287Y-96314768D01*
X113494383Y-96315231D01*
X113985229Y-96112418D01*
X114361098Y-95737204D01*
X114564768Y-95246713D01*
X114565231Y-94715617D01*
X114362418Y-94224771D01*
X114040000Y-93901790D01*
X114040000Y-93542830D01*
X114436120Y-93278152D01*
X114722201Y-92850000D01*
X121202970Y-92850000D01*
X121405302Y-93152811D01*
X121870849Y-93463880D01*
X122420000Y-93573113D01*
X122969151Y-93463880D01*
X123434698Y-93152811D01*
X123745767Y-92687264D01*
X123855000Y-92138113D01*
X123855000Y-92081887D01*
X123745767Y-91532736D01*
X123434698Y-91067189D01*
X122969151Y-90756120D01*
X122420000Y-90646887D01*
X121870849Y-90756120D01*
X121405302Y-91067189D01*
X121229697Y-91330000D01*
X114722201Y-91330000D01*
X114436120Y-90901848D01*
X113905687Y-90547425D01*
X113280000Y-90422968D01*
X112786027Y-90521225D01*
X109578989Y-87314187D01*
X120984752Y-87314187D01*
X121202757Y-87841800D01*
X121606077Y-88245824D01*
X122133309Y-88464750D01*
X122704187Y-88465248D01*
X123231800Y-88247243D01*
X123635824Y-87843923D01*
X123658215Y-87790000D01*
X130330001Y-87789999D01*
X130620840Y-87732147D01*
X130768313Y-87633609D01*
X130843309Y-87664750D01*
X131414187Y-87665248D01*
X131941800Y-87447243D01*
X132345824Y-87043923D01*
X132564750Y-86516691D01*
X132565248Y-85945813D01*
X132425999Y-85608803D01*
X135670028Y-82364774D01*
X136194383Y-82365231D01*
X136685229Y-82162418D01*
X137061098Y-81787204D01*
X137264768Y-81296713D01*
X137265231Y-80765617D01*
X137062418Y-80274771D01*
X136687204Y-79898902D01*
X136196713Y-79695232D01*
X135665617Y-79694769D01*
X135174771Y-79897582D01*
X134798902Y-80272796D01*
X134595232Y-80763287D01*
X134594772Y-81290426D01*
X131090233Y-84794965D01*
X130845813Y-84794752D01*
X130318200Y-85012757D01*
X129914176Y-85416077D01*
X129695250Y-85943309D01*
X129694965Y-86269999D01*
X123658646Y-86270000D01*
X123637243Y-86218200D01*
X123233923Y-85814176D01*
X122706691Y-85595250D01*
X122135813Y-85594752D01*
X121608200Y-85812757D01*
X121204176Y-86216077D01*
X120985250Y-86743309D01*
X120984752Y-87314187D01*
X109578989Y-87314187D01*
X104523781Y-82258979D01*
X104277219Y-82094232D01*
X103986380Y-82036380D01*
X102018604Y-82036380D01*
X102037811Y-82008270D01*
X102088820Y-81756380D01*
X102088820Y-81606024D01*
X102202280Y-81653137D01*
X102758041Y-81653622D01*
X103271683Y-81441390D01*
X103665009Y-81048750D01*
X103678450Y-81016380D01*
X106923840Y-81016380D01*
X107214679Y-80958528D01*
X107461241Y-80793781D01*
X110405022Y-77850000D01*
X111632560Y-77850000D01*
X111632560Y-78090000D01*
X111676838Y-78325317D01*
X111815910Y-78541441D01*
X112028110Y-78686431D01*
X112280000Y-78737440D01*
X114280000Y-78737440D01*
X114515317Y-78693162D01*
X114731441Y-78554090D01*
X114876431Y-78341890D01*
X114927440Y-78090000D01*
X114927440Y-77850000D01*
X116235198Y-77850000D01*
X118781312Y-80396114D01*
X118716887Y-80720000D01*
X118826120Y-81269151D01*
X119137189Y-81734698D01*
X119602736Y-82045767D01*
X120151887Y-82155000D01*
X120208113Y-82155000D01*
X120757264Y-82045767D01*
X121222811Y-81734698D01*
X121533880Y-81269151D01*
X121586584Y-81004187D01*
X123824752Y-81004187D01*
X124042757Y-81531800D01*
X124446077Y-81935824D01*
X124973309Y-82154750D01*
X125544187Y-82155248D01*
X126071800Y-81937243D01*
X126475824Y-81533923D01*
X126694750Y-81006691D01*
X126695248Y-80435813D01*
X126672951Y-80381851D01*
X130506881Y-76547921D01*
X130613835Y-76387852D01*
X130671628Y-76301359D01*
X130729480Y-76010520D01*
X130729480Y-75459610D01*
X130819110Y-75459610D01*
X131054427Y-75415332D01*
X131270551Y-75276260D01*
X131415541Y-75064060D01*
X131466550Y-74812170D01*
X131466550Y-73112910D01*
X131422272Y-72877593D01*
X131283200Y-72661469D01*
X131071000Y-72516479D01*
X130819110Y-72465470D01*
X129119850Y-72465470D01*
X128884533Y-72509748D01*
X128668409Y-72648820D01*
X128523419Y-72861020D01*
X128472410Y-73112910D01*
X128472410Y-74812170D01*
X128516688Y-75047487D01*
X128655760Y-75263611D01*
X128867960Y-75408601D01*
X129119850Y-75459610D01*
X129209480Y-75459610D01*
X129209480Y-75695718D01*
X125598454Y-79306744D01*
X125546691Y-79285250D01*
X124975813Y-79284752D01*
X124448200Y-79502757D01*
X124044176Y-79906077D01*
X123825250Y-80433309D01*
X123824752Y-81004187D01*
X121586584Y-81004187D01*
X121643113Y-80720000D01*
X121533880Y-80170849D01*
X121222811Y-79705302D01*
X120757264Y-79394233D01*
X120208113Y-79285000D01*
X120151887Y-79285000D01*
X119874898Y-79340096D01*
X117087401Y-76552599D01*
X116840839Y-76387852D01*
X116550000Y-76330000D01*
X114927440Y-76330000D01*
X114927440Y-76090000D01*
X114883162Y-75854683D01*
X114744090Y-75638559D01*
X114531890Y-75493569D01*
X114280000Y-75442560D01*
X112280000Y-75442560D01*
X112044683Y-75486838D01*
X111828559Y-75625910D01*
X111683569Y-75838110D01*
X111632560Y-76090000D01*
X111632560Y-76330000D01*
X110090220Y-76330000D01*
X109799381Y-76387852D01*
X109552819Y-76552599D01*
X106609038Y-79496380D01*
X103678911Y-79496380D01*
X103666390Y-79466077D01*
X103273750Y-79072751D01*
X103208408Y-79045619D01*
X103183528Y-78920539D01*
X103183528Y-78920538D01*
X103018781Y-78673977D01*
X98450383Y-74105579D01*
X98203821Y-73940832D01*
X97912982Y-73882980D01*
X97015007Y-73882980D01*
X96826038Y-73600169D01*
X96360491Y-73289100D01*
X95811340Y-73179867D01*
X95262189Y-73289100D01*
X94796642Y-73600169D01*
X94485573Y-74065716D01*
X94376340Y-74614867D01*
X89830843Y-74614867D01*
X89862619Y-74567311D01*
X89929814Y-74229500D01*
X91029822Y-74229500D01*
X91320661Y-74171648D01*
X91567223Y-74006901D01*
X97094124Y-68480000D01*
X109678196Y-68480000D01*
X109467598Y-68690598D01*
X109302851Y-68937160D01*
X109244999Y-69227999D01*
X109244999Y-70212001D01*
X109302851Y-70502840D01*
X109467598Y-70749402D01*
X110000598Y-71282402D01*
X110247160Y-71447149D01*
X110537999Y-71505001D01*
X111695187Y-71505001D01*
X111694769Y-71984383D01*
X111897582Y-72475229D01*
X112272796Y-72851098D01*
X112763287Y-73054768D01*
X113290426Y-73055228D01*
X114735139Y-74499941D01*
X114981700Y-74664688D01*
X115029954Y-74674286D01*
X115272540Y-74722540D01*
X118517133Y-74722540D01*
X118550138Y-74802417D01*
X118967406Y-75220414D01*
X119512873Y-75446912D01*
X120103496Y-75447428D01*
X120649357Y-75221882D01*
X121067354Y-74804614D01*
X121293852Y-74259147D01*
X121294368Y-73668524D01*
X121260431Y-73586391D01*
X124516822Y-70330000D01*
X130947005Y-70330000D01*
X131117189Y-70584698D01*
X131582736Y-70895767D01*
X132131887Y-71005000D01*
X132188113Y-71005000D01*
X132737264Y-70895767D01*
X133202811Y-70584698D01*
X133513880Y-70119151D01*
X133623113Y-69570000D01*
X133513880Y-69020849D01*
X133202811Y-68555302D01*
X132737264Y-68244233D01*
X132188113Y-68135000D01*
X132131887Y-68135000D01*
X131582736Y-68244233D01*
X131117189Y-68555302D01*
X130947005Y-68810000D01*
X124202020Y-68810000D01*
X123911181Y-68867852D01*
X123664619Y-69032599D01*
X120185906Y-72511312D01*
X120106087Y-72478168D01*
X119515464Y-72477652D01*
X118969603Y-72703198D01*
X118551606Y-73120466D01*
X118517526Y-73202540D01*
X115587342Y-73202540D01*
X114364774Y-71979972D01*
X114365231Y-71455617D01*
X114162418Y-70964771D01*
X113787204Y-70588902D01*
X113738939Y-70568861D01*
X117787800Y-66520000D01*
X123406147Y-66520000D01*
X123529083Y-66703988D01*
X123962189Y-66993379D01*
X124473071Y-67095000D01*
X125646929Y-67095000D01*
X126157811Y-66993379D01*
X126590917Y-66703988D01*
X126880308Y-66270882D01*
X126981929Y-65760000D01*
X126880308Y-65249118D01*
X126590917Y-64816012D01*
X126507089Y-64760000D01*
X126590917Y-64703988D01*
X126713853Y-64520000D01*
X131115198Y-64520000D01*
X135826744Y-69231546D01*
X135805250Y-69283309D01*
X135804752Y-69854187D01*
X135836628Y-69931333D01*
X135737853Y-70079160D01*
X135680001Y-70369999D01*
X135680001Y-74688195D01*
X133392599Y-76975597D01*
X133227852Y-77222159D01*
X133170000Y-77512998D01*
X133170000Y-77902345D01*
X132798902Y-78272796D01*
X132595232Y-78763287D01*
X132594769Y-79294383D01*
X132797582Y-79785229D01*
X133172796Y-80161098D01*
X133663287Y-80364768D01*
X134194383Y-80365231D01*
X134685229Y-80162418D01*
X135061098Y-79787204D01*
X135264768Y-79296713D01*
X135265231Y-78765617D01*
X135062418Y-78274771D01*
X134690000Y-77901703D01*
X134690000Y-77827800D01*
X134778574Y-77739226D01*
X134797582Y-77785229D01*
X135172796Y-78161098D01*
X135663287Y-78364768D01*
X136194383Y-78365231D01*
X136685229Y-78162418D01*
X137061098Y-77787204D01*
X137264768Y-77296713D01*
X137265228Y-76769574D01*
X140453301Y-73581501D01*
X140618048Y-73334939D01*
X140675900Y-73044100D01*
X140675900Y-66949320D01*
X140618048Y-66658481D01*
X140453301Y-66411919D01*
X135263981Y-61222599D01*
X135017419Y-61057852D01*
X134726580Y-61000000D01*
X126713853Y-61000000D01*
X126590917Y-60816012D01*
X126157811Y-60526621D01*
X125646929Y-60425000D01*
X124473071Y-60425000D01*
X123962189Y-60526621D01*
X123529083Y-60816012D01*
X123239692Y-61249118D01*
X123138071Y-61760000D01*
X123239692Y-62270882D01*
X123529083Y-62703988D01*
X123612911Y-62760000D01*
X123529083Y-62816012D01*
X123406147Y-63000000D01*
X107176442Y-63000000D01*
X107040142Y-62796012D01*
X106607036Y-62506621D01*
X106096154Y-62405000D01*
X106043846Y-62405000D01*
X105532964Y-62506621D01*
X105099858Y-62796012D01*
X104909120Y-63081473D01*
X104843837Y-63037852D01*
X104552998Y-62980000D01*
X102117655Y-62980000D01*
X101747204Y-62608902D01*
X101256713Y-62405232D01*
X100725617Y-62404769D01*
X100234771Y-62607582D01*
X99858902Y-62982796D01*
X99655232Y-63473287D01*
X99654772Y-64000426D01*
X97392218Y-66262980D01*
X97049986Y-66262980D01*
X97028583Y-66211180D01*
X96625263Y-65807156D01*
X96098031Y-65588230D01*
X95527153Y-65587732D01*
X95473191Y-65610029D01*
X90074941Y-60211779D01*
X89828379Y-60047032D01*
X89537540Y-59989180D01*
X74889360Y-59989180D01*
X74598520Y-60047032D01*
X74351959Y-60211779D01*
X73401999Y-61161739D01*
X73237252Y-61408301D01*
X73179400Y-61699140D01*
X71281313Y-61699140D01*
X71279199Y-57897788D01*
X125694767Y-57872700D01*
X125826040Y-57846525D01*
X131760337Y-57835174D01*
X142230839Y-67829522D01*
X142230839Y-67829522D01*
G37*
X142230839Y-67829522D02*
X142213448Y-94107468D01*
X134155603Y-102170160D01*
X132188528Y-102170160D01*
X132282389Y-102085134D01*
X132521914Y-101579041D01*
X132400629Y-101357000D01*
X131257000Y-101357000D01*
X131257000Y-101377000D01*
X131003000Y-101377000D01*
X131003000Y-101357000D01*
X129859371Y-101357000D01*
X129738086Y-101579041D01*
X129977611Y-102085134D01*
X130071472Y-102170160D01*
X71303818Y-102170160D01*
X71298388Y-92403930D01*
X75010440Y-92403930D01*
X75010440Y-93144490D01*
X75107113Y-93377879D01*
X75285742Y-93556507D01*
X75519131Y-93653180D01*
X76259690Y-93653180D01*
X76418440Y-93494430D01*
X76418440Y-92245180D01*
X75169190Y-92245180D01*
X75010440Y-92403930D01*
X71298388Y-92403930D01*
X71297659Y-91091870D01*
X75010440Y-91091870D01*
X75010440Y-91832430D01*
X75169190Y-91991180D01*
X76418440Y-91991180D01*
X76418440Y-90741930D01*
X76672440Y-90741930D01*
X76672440Y-91991180D01*
X76692440Y-91991180D01*
X76692440Y-92245180D01*
X76672440Y-92245180D01*
X76672440Y-93494430D01*
X76831190Y-93653180D01*
X77571749Y-93653180D01*
X77805138Y-93556507D01*
X77983767Y-93377879D01*
X78039559Y-93243186D01*
X78214797Y-93418731D01*
X78778770Y-93652913D01*
X79389431Y-93653445D01*
X79500153Y-93607695D01*
X83842320Y-97949862D01*
X83842320Y-98426125D01*
X83587622Y-98596309D01*
X83276553Y-99061856D01*
X83167320Y-99611007D01*
X83167320Y-99667233D01*
X83276553Y-100216384D01*
X83587622Y-100681931D01*
X84053169Y-100993000D01*
X84602320Y-101102233D01*
X85151471Y-100993000D01*
X85617018Y-100681931D01*
X85928087Y-100216384D01*
X86037320Y-99667233D01*
X86037320Y-99611007D01*
X85928087Y-99061856D01*
X85617018Y-98596309D01*
X85362320Y-98426125D01*
X85362320Y-97635060D01*
X85304468Y-97344221D01*
X85139721Y-97097659D01*
X80575206Y-92533144D01*
X80620173Y-92424850D01*
X80620705Y-91814189D01*
X80430849Y-91354701D01*
X89065106Y-91354701D01*
X89304631Y-91860794D01*
X89719597Y-92236701D01*
X90107981Y-92397564D01*
X90330020Y-92275575D01*
X90330020Y-91132660D01*
X90584020Y-91132660D01*
X90584020Y-92275575D01*
X90806059Y-92397564D01*
X91194443Y-92236701D01*
X91609409Y-91860794D01*
X91816140Y-91423991D01*
X95724735Y-91423991D01*
X95957932Y-91988371D01*
X96389357Y-92420551D01*
X96515980Y-92473130D01*
X96557852Y-92683631D01*
X96722599Y-92930193D01*
X104389807Y-100597401D01*
X104636369Y-100762148D01*
X104927208Y-100820000D01*
X112145600Y-100820000D01*
X112286012Y-101030142D01*
X112719118Y-101319533D01*
X113230000Y-101421154D01*
X113740882Y-101319533D01*
X114173988Y-101030142D01*
X114273668Y-100880959D01*
X129738086Y-100880959D01*
X129859371Y-101103000D01*
X131003000Y-101103000D01*
X131003000Y-99960085D01*
X131257000Y-99960085D01*
X131257000Y-101103000D01*
X132400629Y-101103000D01*
X132521914Y-100880959D01*
X132282389Y-100374866D01*
X131867423Y-99998959D01*
X131479039Y-99838096D01*
X131257000Y-99960085D01*
X131003000Y-99960085D01*
X130780961Y-99838096D01*
X130392577Y-99998959D01*
X129977611Y-100374866D01*
X129738086Y-100880959D01*
X114273668Y-100880959D01*
X114463379Y-100597036D01*
X114565000Y-100086154D01*
X114565000Y-100033846D01*
X114463379Y-99522964D01*
X114173988Y-99089858D01*
X113740882Y-98800467D01*
X113230000Y-98698846D01*
X112719118Y-98800467D01*
X112286012Y-99089858D01*
X112145600Y-99300000D01*
X105242010Y-99300000D01*
X98246328Y-92304318D01*
X98350668Y-92200159D01*
X98859446Y-92200159D01*
X98945852Y-92456643D01*
X99519336Y-92666458D01*
X100129460Y-92640839D01*
X100574148Y-92456643D01*
X100660554Y-92200159D01*
X99760000Y-91299605D01*
X98859446Y-92200159D01*
X98350668Y-92200159D01*
X98560551Y-91990643D01*
X98564294Y-91981628D01*
X98679841Y-92020554D01*
X99580395Y-91120000D01*
X99939605Y-91120000D01*
X100840159Y-92020554D01*
X100955214Y-91981793D01*
X100957932Y-91988371D01*
X101389357Y-92420551D01*
X101953330Y-92654733D01*
X102563991Y-92655265D01*
X103128371Y-92422068D01*
X103560551Y-91990643D01*
X103794733Y-91426670D01*
X103795265Y-90816009D01*
X103562068Y-90251629D01*
X103130643Y-89819449D01*
X102566670Y-89585267D01*
X101956009Y-89584735D01*
X101391629Y-89817932D01*
X100959449Y-90249357D01*
X100955706Y-90258372D01*
X100840159Y-90219446D01*
X99939605Y-91120000D01*
X99580395Y-91120000D01*
X98679841Y-90219446D01*
X98564786Y-90258207D01*
X98562068Y-90251629D01*
X98350650Y-90039841D01*
X98859446Y-90039841D01*
X99760000Y-90940395D01*
X100660554Y-90039841D01*
X100574148Y-89783357D01*
X100000664Y-89573542D01*
X99390540Y-89599161D01*
X98945852Y-89783357D01*
X98859446Y-90039841D01*
X98350650Y-90039841D01*
X98130643Y-89819449D01*
X97566670Y-89585267D01*
X96956009Y-89584735D01*
X96391629Y-89817932D01*
X95959449Y-90249357D01*
X95725267Y-90813330D01*
X95724735Y-91423991D01*
X91816140Y-91423991D01*
X91848934Y-91354701D01*
X91727649Y-91132660D01*
X90584020Y-91132660D01*
X90330020Y-91132660D01*
X89186391Y-91132660D01*
X89065106Y-91354701D01*
X80430849Y-91354701D01*
X80387508Y-91249809D01*
X79956083Y-90817629D01*
X79568328Y-90656619D01*
X89065106Y-90656619D01*
X89186391Y-90878660D01*
X90330020Y-90878660D01*
X90330020Y-89735745D01*
X90584020Y-89735745D01*
X90584020Y-90878660D01*
X91727649Y-90878660D01*
X91848934Y-90656619D01*
X91609409Y-90150526D01*
X91194443Y-89774619D01*
X90806059Y-89613756D01*
X90584020Y-89735745D01*
X90330020Y-89735745D01*
X90107981Y-89613756D01*
X89719597Y-89774619D01*
X89304631Y-90150526D01*
X89065106Y-90656619D01*
X79568328Y-90656619D01*
X79392110Y-90583447D01*
X78781449Y-90582915D01*
X78217069Y-90816112D01*
X78039599Y-90993272D01*
X77983767Y-90858481D01*
X77805138Y-90679853D01*
X77571749Y-90583180D01*
X76831190Y-90583180D01*
X76672440Y-90741930D01*
X76418440Y-90741930D01*
X76259690Y-90583180D01*
X75519131Y-90583180D01*
X75285742Y-90679853D01*
X75107113Y-90858481D01*
X75010440Y-91091870D01*
X71297659Y-91091870D01*
X71292836Y-82417741D01*
X75084946Y-82417741D01*
X75324471Y-82923834D01*
X75739437Y-83299741D01*
X76127821Y-83460604D01*
X76349860Y-83338615D01*
X76349860Y-82195700D01*
X76603860Y-82195700D01*
X76603860Y-83338615D01*
X76825899Y-83460604D01*
X77214283Y-83299741D01*
X77629249Y-82923834D01*
X77868774Y-82417741D01*
X77747489Y-82195700D01*
X76603860Y-82195700D01*
X76349860Y-82195700D01*
X75206231Y-82195700D01*
X75084946Y-82417741D01*
X71292836Y-82417741D01*
X71292448Y-81719659D01*
X75084946Y-81719659D01*
X75206231Y-81941700D01*
X76349860Y-81941700D01*
X76349860Y-80798785D01*
X76603860Y-80798785D01*
X76603860Y-81941700D01*
X77747489Y-81941700D01*
X77868774Y-81719659D01*
X77629249Y-81213566D01*
X77214283Y-80837659D01*
X76825899Y-80676796D01*
X76603860Y-80798785D01*
X76349860Y-80798785D01*
X76127821Y-80676796D01*
X75739437Y-80837659D01*
X75324471Y-81213566D01*
X75084946Y-81719659D01*
X71292448Y-81719659D01*
X71281313Y-61699140D01*
X73179400Y-61699140D01*
X73179400Y-64531240D01*
X73237252Y-64822079D01*
X73401999Y-65068641D01*
X75063604Y-66730246D01*
X75042110Y-66782009D01*
X75041612Y-67352887D01*
X75259617Y-67880500D01*
X75662937Y-68284524D01*
X76190169Y-68503450D01*
X76761047Y-68503948D01*
X77288660Y-68285943D01*
X77692684Y-67882623D01*
X77911610Y-67355391D01*
X77912108Y-66784513D01*
X77880232Y-66707368D01*
X77979007Y-66559541D01*
X77997216Y-66467999D01*
X78036859Y-66268701D01*
X78036859Y-63614199D01*
X77979007Y-63323360D01*
X77814260Y-63076798D01*
X77803756Y-63066294D01*
X77825250Y-63014531D01*
X77825748Y-62443653D01*
X77607743Y-61916040D01*
X77204423Y-61512016D01*
X77197593Y-61509180D01*
X85812939Y-61509180D01*
X85507689Y-61713142D01*
X85196620Y-62178689D01*
X85087387Y-62727840D01*
X85196620Y-63276991D01*
X85507689Y-63742538D01*
X85790500Y-63931507D01*
X85790500Y-71868259D01*
X85685252Y-71938583D01*
X85629240Y-72022411D01*
X85573228Y-71938583D01*
X85140122Y-71649192D01*
X84629240Y-71547571D01*
X84118358Y-71649192D01*
X83685252Y-71938583D01*
X83395861Y-72371689D01*
X83294240Y-72882571D01*
X83294240Y-74056429D01*
X83395861Y-74567311D01*
X83685252Y-75000417D01*
X83842320Y-75105366D01*
X83842320Y-85700474D01*
X83790520Y-85721877D01*
X83386496Y-86125197D01*
X83167570Y-86652429D01*
X83167072Y-87223307D01*
X83385077Y-87750920D01*
X83788397Y-88154944D01*
X84315629Y-88373870D01*
X84886507Y-88374368D01*
X85414120Y-88156363D01*
X85818144Y-87753043D01*
X86037070Y-87225811D01*
X86037568Y-86654933D01*
X85819563Y-86127320D01*
X85416243Y-85723296D01*
X85362320Y-85700905D01*
X85362320Y-75141341D01*
X85573228Y-75000417D01*
X85629240Y-74916589D01*
X85685252Y-75000417D01*
X86118358Y-75289808D01*
X86629240Y-75391429D01*
X87140122Y-75289808D01*
X87573228Y-75000417D01*
X87629240Y-74916589D01*
X87685252Y-75000417D01*
X87869240Y-75123353D01*
X87869240Y-84097880D01*
X87927092Y-84388719D01*
X88091839Y-84635281D01*
X89043764Y-85587206D01*
X89022270Y-85638969D01*
X89021772Y-86209847D01*
X89239777Y-86737460D01*
X89643097Y-87141484D01*
X90170329Y-87360410D01*
X90741207Y-87360908D01*
X91268820Y-87142903D01*
X91672844Y-86739583D01*
X91891770Y-86212351D01*
X91892268Y-85641473D01*
X91674263Y-85113860D01*
X91270943Y-84709836D01*
X90743711Y-84490910D01*
X90172833Y-84490412D01*
X90118871Y-84512709D01*
X89389240Y-83783078D01*
X89389240Y-80048682D01*
X95992236Y-80048682D01*
X96020018Y-80603748D01*
X96178983Y-80987523D01*
X96421167Y-81056988D01*
X97221775Y-80256380D01*
X96421167Y-79455772D01*
X96178983Y-79525237D01*
X95992236Y-80048682D01*
X89389240Y-80048682D01*
X89389240Y-75123353D01*
X89573228Y-75000417D01*
X89830843Y-74614867D01*
X94376340Y-74614867D01*
X94376340Y-74671093D01*
X94485573Y-75220244D01*
X94796642Y-75685791D01*
X95262189Y-75996860D01*
X95811340Y-76106093D01*
X96360491Y-75996860D01*
X96826038Y-75685791D01*
X97015007Y-75402980D01*
X97598180Y-75402980D01*
X100304140Y-78108940D01*
X98441380Y-78108940D01*
X98206063Y-78153218D01*
X97989939Y-78292290D01*
X97844949Y-78504490D01*
X97793940Y-78756380D01*
X97793940Y-78913188D01*
X97609078Y-78847236D01*
X97054012Y-78875018D01*
X96670237Y-79033983D01*
X96600772Y-79276167D01*
X97401380Y-80076775D01*
X97415523Y-80062633D01*
X97595128Y-80242238D01*
X97580985Y-80256380D01*
X97595128Y-80270523D01*
X97415523Y-80450128D01*
X97401380Y-80435985D01*
X96600772Y-81236593D01*
X96670237Y-81478777D01*
X97193682Y-81665524D01*
X97748748Y-81637742D01*
X97793940Y-81619023D01*
X97793940Y-81756380D01*
X97838218Y-81991697D01*
X97977290Y-82207821D01*
X98189490Y-82352811D01*
X98441380Y-82403820D01*
X98591736Y-82403820D01*
X98544623Y-82517280D01*
X98544138Y-83073041D01*
X98756370Y-83586683D01*
X99149010Y-83980009D01*
X99662280Y-84193137D01*
X100218041Y-84193622D01*
X100731683Y-83981390D01*
X101125009Y-83588750D01*
X101138450Y-83556380D01*
X103671578Y-83556380D01*
X111732628Y-91617430D01*
X111645000Y-92057968D01*
X111645000Y-92122032D01*
X111769457Y-92747719D01*
X112123880Y-93278152D01*
X112520000Y-93542830D01*
X112520000Y-93828894D01*
X112474771Y-93847582D01*
X112098902Y-94222796D01*
X111895232Y-94713287D01*
X111894769Y-95244383D01*
X112097582Y-95735229D01*
X112472796Y-96111098D01*
X112963287Y-96314768D01*
X113494383Y-96315231D01*
X113985229Y-96112418D01*
X114361098Y-95737204D01*
X114564768Y-95246713D01*
X114565231Y-94715617D01*
X114362418Y-94224771D01*
X114040000Y-93901790D01*
X114040000Y-93542830D01*
X114436120Y-93278152D01*
X114722201Y-92850000D01*
X121202970Y-92850000D01*
X121405302Y-93152811D01*
X121870849Y-93463880D01*
X122420000Y-93573113D01*
X122969151Y-93463880D01*
X123434698Y-93152811D01*
X123745767Y-92687264D01*
X123855000Y-92138113D01*
X123855000Y-92081887D01*
X123745767Y-91532736D01*
X123434698Y-91067189D01*
X122969151Y-90756120D01*
X122420000Y-90646887D01*
X121870849Y-90756120D01*
X121405302Y-91067189D01*
X121229697Y-91330000D01*
X114722201Y-91330000D01*
X114436120Y-90901848D01*
X113905687Y-90547425D01*
X113280000Y-90422968D01*
X112786027Y-90521225D01*
X109578989Y-87314187D01*
X120984752Y-87314187D01*
X121202757Y-87841800D01*
X121606077Y-88245824D01*
X122133309Y-88464750D01*
X122704187Y-88465248D01*
X123231800Y-88247243D01*
X123635824Y-87843923D01*
X123658215Y-87790000D01*
X130330001Y-87789999D01*
X130620840Y-87732147D01*
X130768313Y-87633609D01*
X130843309Y-87664750D01*
X131414187Y-87665248D01*
X131941800Y-87447243D01*
X132345824Y-87043923D01*
X132564750Y-86516691D01*
X132565248Y-85945813D01*
X132425999Y-85608803D01*
X135670028Y-82364774D01*
X136194383Y-82365231D01*
X136685229Y-82162418D01*
X137061098Y-81787204D01*
X137264768Y-81296713D01*
X137265231Y-80765617D01*
X137062418Y-80274771D01*
X136687204Y-79898902D01*
X136196713Y-79695232D01*
X135665617Y-79694769D01*
X135174771Y-79897582D01*
X134798902Y-80272796D01*
X134595232Y-80763287D01*
X134594772Y-81290426D01*
X131090233Y-84794965D01*
X130845813Y-84794752D01*
X130318200Y-85012757D01*
X129914176Y-85416077D01*
X129695250Y-85943309D01*
X129694965Y-86269999D01*
X123658646Y-86270000D01*
X123637243Y-86218200D01*
X123233923Y-85814176D01*
X122706691Y-85595250D01*
X122135813Y-85594752D01*
X121608200Y-85812757D01*
X121204176Y-86216077D01*
X120985250Y-86743309D01*
X120984752Y-87314187D01*
X109578989Y-87314187D01*
X104523781Y-82258979D01*
X104277219Y-82094232D01*
X103986380Y-82036380D01*
X102018604Y-82036380D01*
X102037811Y-82008270D01*
X102088820Y-81756380D01*
X102088820Y-81606024D01*
X102202280Y-81653137D01*
X102758041Y-81653622D01*
X103271683Y-81441390D01*
X103665009Y-81048750D01*
X103678450Y-81016380D01*
X106923840Y-81016380D01*
X107214679Y-80958528D01*
X107461241Y-80793781D01*
X110405022Y-77850000D01*
X111632560Y-77850000D01*
X111632560Y-78090000D01*
X111676838Y-78325317D01*
X111815910Y-78541441D01*
X112028110Y-78686431D01*
X112280000Y-78737440D01*
X114280000Y-78737440D01*
X114515317Y-78693162D01*
X114731441Y-78554090D01*
X114876431Y-78341890D01*
X114927440Y-78090000D01*
X114927440Y-77850000D01*
X116235198Y-77850000D01*
X118781312Y-80396114D01*
X118716887Y-80720000D01*
X118826120Y-81269151D01*
X119137189Y-81734698D01*
X119602736Y-82045767D01*
X120151887Y-82155000D01*
X120208113Y-82155000D01*
X120757264Y-82045767D01*
X121222811Y-81734698D01*
X121533880Y-81269151D01*
X121586584Y-81004187D01*
X123824752Y-81004187D01*
X124042757Y-81531800D01*
X124446077Y-81935824D01*
X124973309Y-82154750D01*
X125544187Y-82155248D01*
X126071800Y-81937243D01*
X126475824Y-81533923D01*
X126694750Y-81006691D01*
X126695248Y-80435813D01*
X126672951Y-80381851D01*
X130506881Y-76547921D01*
X130613835Y-76387852D01*
X130671628Y-76301359D01*
X130729480Y-76010520D01*
X130729480Y-75459610D01*
X130819110Y-75459610D01*
X131054427Y-75415332D01*
X131270551Y-75276260D01*
X131415541Y-75064060D01*
X131466550Y-74812170D01*
X131466550Y-73112910D01*
X131422272Y-72877593D01*
X131283200Y-72661469D01*
X131071000Y-72516479D01*
X130819110Y-72465470D01*
X129119850Y-72465470D01*
X128884533Y-72509748D01*
X128668409Y-72648820D01*
X128523419Y-72861020D01*
X128472410Y-73112910D01*
X128472410Y-74812170D01*
X128516688Y-75047487D01*
X128655760Y-75263611D01*
X128867960Y-75408601D01*
X129119850Y-75459610D01*
X129209480Y-75459610D01*
X129209480Y-75695718D01*
X125598454Y-79306744D01*
X125546691Y-79285250D01*
X124975813Y-79284752D01*
X124448200Y-79502757D01*
X124044176Y-79906077D01*
X123825250Y-80433309D01*
X123824752Y-81004187D01*
X121586584Y-81004187D01*
X121643113Y-80720000D01*
X121533880Y-80170849D01*
X121222811Y-79705302D01*
X120757264Y-79394233D01*
X120208113Y-79285000D01*
X120151887Y-79285000D01*
X119874898Y-79340096D01*
X117087401Y-76552599D01*
X116840839Y-76387852D01*
X116550000Y-76330000D01*
X114927440Y-76330000D01*
X114927440Y-76090000D01*
X114883162Y-75854683D01*
X114744090Y-75638559D01*
X114531890Y-75493569D01*
X114280000Y-75442560D01*
X112280000Y-75442560D01*
X112044683Y-75486838D01*
X111828559Y-75625910D01*
X111683569Y-75838110D01*
X111632560Y-76090000D01*
X111632560Y-76330000D01*
X110090220Y-76330000D01*
X109799381Y-76387852D01*
X109552819Y-76552599D01*
X106609038Y-79496380D01*
X103678911Y-79496380D01*
X103666390Y-79466077D01*
X103273750Y-79072751D01*
X103208408Y-79045619D01*
X103183528Y-78920539D01*
X103183528Y-78920538D01*
X103018781Y-78673977D01*
X98450383Y-74105579D01*
X98203821Y-73940832D01*
X97912982Y-73882980D01*
X97015007Y-73882980D01*
X96826038Y-73600169D01*
X96360491Y-73289100D01*
X95811340Y-73179867D01*
X95262189Y-73289100D01*
X94796642Y-73600169D01*
X94485573Y-74065716D01*
X94376340Y-74614867D01*
X89830843Y-74614867D01*
X89862619Y-74567311D01*
X89929814Y-74229500D01*
X91029822Y-74229500D01*
X91320661Y-74171648D01*
X91567223Y-74006901D01*
X97094124Y-68480000D01*
X109678196Y-68480000D01*
X109467598Y-68690598D01*
X109302851Y-68937160D01*
X109244999Y-69227999D01*
X109244999Y-70212001D01*
X109302851Y-70502840D01*
X109467598Y-70749402D01*
X110000598Y-71282402D01*
X110247160Y-71447149D01*
X110537999Y-71505001D01*
X111695187Y-71505001D01*
X111694769Y-71984383D01*
X111897582Y-72475229D01*
X112272796Y-72851098D01*
X112763287Y-73054768D01*
X113290426Y-73055228D01*
X114735139Y-74499941D01*
X114981700Y-74664688D01*
X115029954Y-74674286D01*
X115272540Y-74722540D01*
X118517133Y-74722540D01*
X118550138Y-74802417D01*
X118967406Y-75220414D01*
X119512873Y-75446912D01*
X120103496Y-75447428D01*
X120649357Y-75221882D01*
X121067354Y-74804614D01*
X121293852Y-74259147D01*
X121294368Y-73668524D01*
X121260431Y-73586391D01*
X124516822Y-70330000D01*
X130947005Y-70330000D01*
X131117189Y-70584698D01*
X131582736Y-70895767D01*
X132131887Y-71005000D01*
X132188113Y-71005000D01*
X132737264Y-70895767D01*
X133202811Y-70584698D01*
X133513880Y-70119151D01*
X133623113Y-69570000D01*
X133513880Y-69020849D01*
X133202811Y-68555302D01*
X132737264Y-68244233D01*
X132188113Y-68135000D01*
X132131887Y-68135000D01*
X131582736Y-68244233D01*
X131117189Y-68555302D01*
X130947005Y-68810000D01*
X124202020Y-68810000D01*
X123911181Y-68867852D01*
X123664619Y-69032599D01*
X120185906Y-72511312D01*
X120106087Y-72478168D01*
X119515464Y-72477652D01*
X118969603Y-72703198D01*
X118551606Y-73120466D01*
X118517526Y-73202540D01*
X115587342Y-73202540D01*
X114364774Y-71979972D01*
X114365231Y-71455617D01*
X114162418Y-70964771D01*
X113787204Y-70588902D01*
X113738939Y-70568861D01*
X117787800Y-66520000D01*
X123406147Y-66520000D01*
X123529083Y-66703988D01*
X123962189Y-66993379D01*
X124473071Y-67095000D01*
X125646929Y-67095000D01*
X126157811Y-66993379D01*
X126590917Y-66703988D01*
X126880308Y-66270882D01*
X126981929Y-65760000D01*
X126880308Y-65249118D01*
X126590917Y-64816012D01*
X126507089Y-64760000D01*
X126590917Y-64703988D01*
X126713853Y-64520000D01*
X131115198Y-64520000D01*
X135826744Y-69231546D01*
X135805250Y-69283309D01*
X135804752Y-69854187D01*
X135836628Y-69931333D01*
X135737853Y-70079160D01*
X135680001Y-70369999D01*
X135680001Y-74688195D01*
X133392599Y-76975597D01*
X133227852Y-77222159D01*
X133170000Y-77512998D01*
X133170000Y-77902345D01*
X132798902Y-78272796D01*
X132595232Y-78763287D01*
X132594769Y-79294383D01*
X132797582Y-79785229D01*
X133172796Y-80161098D01*
X133663287Y-80364768D01*
X134194383Y-80365231D01*
X134685229Y-80162418D01*
X135061098Y-79787204D01*
X135264768Y-79296713D01*
X135265231Y-78765617D01*
X135062418Y-78274771D01*
X134690000Y-77901703D01*
X134690000Y-77827800D01*
X134778574Y-77739226D01*
X134797582Y-77785229D01*
X135172796Y-78161098D01*
X135663287Y-78364768D01*
X136194383Y-78365231D01*
X136685229Y-78162418D01*
X137061098Y-77787204D01*
X137264768Y-77296713D01*
X137265228Y-76769574D01*
X140453301Y-73581501D01*
X140618048Y-73334939D01*
X140675900Y-73044100D01*
X140675900Y-66949320D01*
X140618048Y-66658481D01*
X140453301Y-66411919D01*
X135263981Y-61222599D01*
X135017419Y-61057852D01*
X134726580Y-61000000D01*
X126713853Y-61000000D01*
X126590917Y-60816012D01*
X126157811Y-60526621D01*
X125646929Y-60425000D01*
X124473071Y-60425000D01*
X123962189Y-60526621D01*
X123529083Y-60816012D01*
X123239692Y-61249118D01*
X123138071Y-61760000D01*
X123239692Y-62270882D01*
X123529083Y-62703988D01*
X123612911Y-62760000D01*
X123529083Y-62816012D01*
X123406147Y-63000000D01*
X107176442Y-63000000D01*
X107040142Y-62796012D01*
X106607036Y-62506621D01*
X106096154Y-62405000D01*
X106043846Y-62405000D01*
X105532964Y-62506621D01*
X105099858Y-62796012D01*
X104909120Y-63081473D01*
X104843837Y-63037852D01*
X104552998Y-62980000D01*
X102117655Y-62980000D01*
X101747204Y-62608902D01*
X101256713Y-62405232D01*
X100725617Y-62404769D01*
X100234771Y-62607582D01*
X99858902Y-62982796D01*
X99655232Y-63473287D01*
X99654772Y-64000426D01*
X97392218Y-66262980D01*
X97049986Y-66262980D01*
X97028583Y-66211180D01*
X96625263Y-65807156D01*
X96098031Y-65588230D01*
X95527153Y-65587732D01*
X95473191Y-65610029D01*
X90074941Y-60211779D01*
X89828379Y-60047032D01*
X89537540Y-59989180D01*
X74889360Y-59989180D01*
X74598520Y-60047032D01*
X74351959Y-60211779D01*
X73401999Y-61161739D01*
X73237252Y-61408301D01*
X73179400Y-61699140D01*
X71281313Y-61699140D01*
X71279199Y-57897788D01*
X125694767Y-57872700D01*
X125826040Y-57846525D01*
X131760337Y-57835174D01*
X142230839Y-67829522D01*
M02*
